<svg width="635" height="582" viewBox="0 0 635 582" fill="none" xmlns="http://www.w3.org/2000/svg">
<ellipse cx="334.149" cy="552.05" rx="242.402" ry="29.7138" fill="#A2A2A2" fill-opacity="0.13" style="mix-blend-mode:luminosity"/>
<path d="M116.057 178.028C107.621 192.392 106.902 207.583 113.87 224.539C115.67 228.993 119.52 235.424 121.6 237.628C122.948 239 123.404 240.375 124.359 246.921L125.543 254.601L122.942 252.272C110.829 241.517 93.8465 239.019 75.1138 245.178C65.7195 248.338 65.0043 250.529 70.7845 258.913C76.435 267.197 80.6495 271.716 88.118 277.351C96.0723 283.425 100.125 285.288 108.498 286.96C116.188 288.452 122.633 287.898 132.701 284.842L134.533 284.324L136.832 290.186C139.174 296.081 143.473 305.866 147.276 313.972C148.409 316.342 149.055 318.273 148.817 318.228C148.501 318.192 146.821 317.525 144.967 316.726C140.188 314.65 131.716 313.108 126.122 313.353C117.361 313.712 106.211 317.38 96.7724 323.107C88.1547 328.298 86.5725 330.101 87.5864 333.613C88.3048 336.078 96.4124 343.295 103.931 348.147C118.796 357.719 132.124 361.327 145.815 359.531C152.786 358.558 157.565 356.87 164.705 352.809C167.591 351.18 169.283 350.488 169.606 350.871C169.886 351.222 172.511 354.595 175.459 358.352C181.206 365.615 196.264 383 197.95 384.287C199.636 385.575 198.156 385.54 193.24 384.181C183.483 381.453 171.457 382.056 161.928 385.661C156.864 387.543 150.871 391.179 146.027 395.282C141.95 398.738 132.323 411.166 128.797 417.576C124.773 424.906 125.496 426.827 132.95 429.165C147.489 433.697 167.662 434.525 180.236 431.055C185.885 429.483 195.598 424.65 200.099 421.175C204.273 417.86 211.285 409.664 213.552 405.441C214.425 403.849 215.253 402.497 215.405 402.476C215.558 402.456 218.861 405.389 222.801 409.013C240.588 425.334 251.078 433.823 253.212 433.537C255.162 433.315 256.749 432.132 257.165 430.602C257.68 428.942 257.131 428.317 248.792 421.401C238.757 413.123 223.119 398.648 222.976 397.581C222.945 397.352 224.553 396.322 226.543 395.24C241.048 387.359 250.305 373.623 253.599 355.059C255.281 345.598 255.354 337.168 253.862 326.036C252.546 315.929 251.645 313.256 249.336 312.246C247.32 311.391 245.226 311.982 237.741 315.779C225.482 321.885 218.788 327.244 212.074 336.216C204.096 346.753 201.183 357.738 202.509 371.685C202.81 374.516 202.964 376.824 202.812 376.845C202.431 376.896 191.748 364.357 185.085 356.053C175.045 343.39 174.379 342.47 175.298 341.804C175.725 341.514 177.948 339.858 180.171 338.202C188.305 332.3 194.341 323.768 197.572 313.712C201.43 301.669 201.374 286.776 197.387 272.37C194.645 262.337 192.841 259.591 189.278 260.224C185.258 260.918 172.886 269.949 166.593 276.846C158.806 285.34 154.134 295.939 153.62 306.292C153.54 308.01 153.299 309.4 153.103 309.388C151.807 309.561 139.634 280.692 140.492 279.568C140.624 279.395 142.611 278.585 144.903 277.735C156.579 273.648 166.203 264.092 170.955 251.775C174.594 242.44 176.399 228.693 175.434 218.306C175.02 214.637 174.819 214.004 173.306 212.848C171.879 211.759 171.129 211.665 168.438 212.142C166.651 212.421 162.265 213.862 158.652 215.278L152.058 217.908L153.002 215.686C156.2 208.272 158.067 199.912 158.321 191.961C158.618 182.88 155.961 166.821 152.549 157.577C150.976 153.364 148.915 151.312 146.519 151.672C142.674 152.226 129.634 161.773 123.089 168.82C118.718 173.558 118.685 173.602 116.057 178.028ZM128.578 170.685C132.441 166.791 137.316 162.917 142.534 159.579C147.358 156.487 146.786 155.982 149.423 165.524C154.613 184.27 154.204 200.041 148.169 213.501C146.395 217.347 140.286 225.617 137.052 228.417C133.511 231.531 128.981 234.505 128.605 234.012C128.412 233.727 128.294 232.269 128.372 230.822C128.395 228.103 131.021 221.348 135.093 213.507C136.21 211.417 137.065 209.401 137.034 209.172C136.889 208.377 131.671 216.643 130.174 219.948C129.43 221.639 128.722 223.014 128.57 223.035C128.079 223.139 128.609 217.247 129.683 211.36C131.364 201.899 132.1 199.86 136.066 194.129C139.778 188.819 139.851 187.917 136.199 191.356L134.037 193.469L136.42 187.213C138.868 180.87 139.004 178.989 136.583 184.669C134.583 189.438 134.2 189.761 133.713 186.994C133.256 184.455 133.053 185.258 133.063 189.098C133.062 190.534 132.291 194.053 131.287 196.981C130.326 199.943 128.992 204.468 128.371 207.073C127.75 209.679 127.154 211.893 127.022 212.066C126.89 212.239 126.172 210.938 125.426 209.137C124.648 207.378 123.877 205.968 123.681 205.956C123.495 206.019 124.041 208.352 124.919 211.145C126.369 215.879 126.392 216.924 125.747 224.849C125.336 229.599 124.955 233.415 124.868 233.349C124.263 232.886 120.96 227.353 119.571 224.512C114.847 214.746 113.315 204.473 115.075 194.73C116.559 186.692 121.73 177.501 128.578 170.685ZM76.9318 250.056C79.1247 249.336 83.4854 248.285 86.6774 247.78C101.994 245.378 114.545 249.556 122.995 259.91C126.246 263.898 130.038 270.763 131.136 274.613L131.737 276.783L129.248 275.293C123.382 271.771 120.185 269.056 117.962 265.784C115.351 261.943 114.528 261.588 116.368 265.183L117.683 267.762L111.571 265.011C108.223 263.481 104.494 262.001 103.322 261.654C101.802 261.314 100.492 260.52 99.0678 259.158C96.9849 257.225 96.9849 257.225 98.0256 258.91L99.0662 260.594L95.8429 259.707C91.3383 258.526 91.8877 259.15 96.6823 260.759C98.8737 261.474 100.793 262.187 100.923 262.286C101.052 262.385 99.919 262.614 98.4044 262.895C95.5937 263.349 95.9293 263.537 100.387 263.793C106.444 264.107 112.266 266.431 119.643 271.38L123.742 274.168L119.431 273.271C114.88 272.329 111.075 272.024 111.114 272.6C111.178 272.786 113.11 273.303 115.423 273.769C123.178 275.175 131.07 278.463 130.046 279.803C129.452 280.582 124.588 281.932 120.799 282.323C113.655 283.164 106.139 281.804 98.9993 278.337C93.561 275.69 84.8868 268.587 80.5065 263.12C76.8791 258.639 72.4752 252.128 72.8053 251.696C72.9373 251.523 74.7821 250.81 76.9318 250.056ZM145.661 229.243C149.992 225.364 155.929 221.89 162.096 219.551C165.021 218.499 167.989 217.48 168.665 217.312C169.842 217.116 169.928 217.182 170.221 218.5C170.584 220.625 170.465 229.295 169.934 234.022C168.419 248.195 162.396 260.295 153.459 267.158C149.725 269.987 145.113 272.351 141.657 273.203L139.586 273.674L140.172 271.384C140.689 269.452 141.527 268.175 145.902 262.894C148.706 259.491 150.842 256.605 150.625 256.44C150.28 256.176 145.103 260.983 143.079 263.544L141.858 265.143L142.53 262.919C145.071 254.662 150.608 245.887 155.326 242.577C158.412 240.417 158.699 239.952 156.473 240.716C155.47 241.044 154.321 241.742 153.991 242.174C153.628 242.649 153.343 242.843 153.313 242.614C153.282 242.385 154.475 240.285 155.976 237.872L158.733 233.544L156.006 236.937C153.344 240.243 153.311 240.286 153.554 238.623C153.969 235.929 153.245 236.608 152.589 239.529C152.171 241.331 151.242 243.086 149.525 245.334C148.215 247.139 146.229 250.277 145.222 252.313C144.171 254.317 143.155 256.005 143.003 256.025C142.817 256.089 142.481 254.737 142.223 253.103C141.638 249.029 141.283 249.853 141.38 254.923C141.502 258.438 141.15 260.154 139.245 265.338C137.964 268.808 136.786 271.605 136.634 271.625C136.067 271.74 134.5 265.547 133.973 261.039C132.473 248.395 136.517 237.453 145.661 229.243ZM97.9758 328.611C110.008 321.1 120.904 317.855 131.656 318.743C141.864 319.625 151.881 324.88 159.552 333.475C163.421 337.73 166.362 342.303 165.178 342.151C164.667 342.103 161.293 340.964 157.551 339.681C151.152 337.395 150.611 337.118 146.885 333.931C142.857 330.513 142.311 330.78 145.65 334.562L147.332 336.394L141.607 335.376C138.468 334.826 134.165 334.278 132.012 334.139C129.859 334.001 126.58 333.276 124.693 332.52C121.582 331.307 121.462 331.285 123.171 332.453L125.053 333.753L122.463 333.828C114.889 334.067 115.136 334.461 123.183 334.857C128.696 335.166 128.696 335.166 123.677 336.809C120.633 337.838 122.427 337.908 128.626 336.96C134.529 336.13 136.118 336.112 140.993 337.166C147.031 338.491 154.55 340.743 155.023 341.378C155.13 341.596 153.529 341.811 151.44 341.858C146.99 341.95 141.14 342.889 141.178 343.466C141.209 343.695 143.895 343.762 147.171 343.594C156.781 343.199 162.932 343.927 165.386 345.732C165.862 346.095 161.792 348.736 157.826 350.704C143.831 357.469 126.994 355.767 110.065 345.851C103.159 341.809 92.194 332.956 92.9202 332.005C93.0853 331.789 95.3615 330.242 97.9758 328.611ZM175.978 274.773C179.923 271.489 187.244 266.472 188.738 266.039C189.895 265.69 189.948 265.8 190.605 267.807C194.894 281.28 196.185 295.543 194.111 306.414C191.856 317.97 185.295 328.085 175.235 335.254C173.637 336.361 172.118 337.185 171.902 337.02C171.081 336.393 171.85 331.711 173.527 327.722C174.428 325.467 176.324 321.371 177.74 318.62C180.109 313.995 180.165 313.833 178.438 316.004C176.645 318.262 174.215 322.43 172.708 325.659L171.977 327.154L171.886 325.032C171.706 321.951 173.337 313.273 174.968 308.359C175.983 305.507 177.389 302.679 179.428 299.651C181.114 297.174 182.198 295.127 181.926 295.125C181.611 295.09 180.877 295.693 180.249 296.514C178.203 299.194 178.029 297.898 179.841 293.464C180.83 291.003 181.566 288.964 181.436 288.865C181.177 288.667 178.593 293.127 178.255 294.375C178.009 295.146 177.88 295.046 177.327 293.529C176.68 291.598 176.536 291.967 176.503 295.774C176.47 296.982 175.872 299.468 175.182 301.268C174.459 303.111 173.183 307.201 172.362 310.338C171.584 313.508 170.808 316.406 170.707 316.808C170.605 317.209 169.898 315.985 169.175 314.064C167.077 308.834 166.757 309.343 168.479 315.243C169.895 320.021 169.962 321.098 169.285 327.631C168.838 331.532 168.439 334.923 168.393 335.162C168.246 335.803 164.573 330.397 163.119 327.371C160.48 321.865 158.777 313.789 158.846 307.066C158.909 302.323 160.633 295.495 162.958 290.837C165.128 286.472 171.847 278.121 175.978 274.773ZM149.999 398.863C163.261 387.5 179.485 384.627 196.871 390.718C201.633 392.37 208.218 395.756 208.363 396.551C208.404 396.856 204.59 397.639 199.863 398.272C191.705 399.366 191.085 399.371 185.853 397.977C180.101 396.458 179.173 396.777 183.965 398.657C187.771 400.126 187.771 400.126 185.077 400.875C180.399 402.162 173.056 404.698 170.172 406.055C168.566 406.813 165.862 407.486 164.164 407.558C161.031 407.629 159.272 408.408 161.926 408.518C164.46 408.605 164.196 408.951 160.021 411.101C155.923 413.242 154.409 414.686 158.167 412.902C161.488 411.332 167.952 408.603 168.125 408.735C168.168 408.768 167.178 410.065 165.87 411.598L163.452 414.406L167.296 411.524C172.902 407.318 176.431 405.565 182.233 403.972C187.958 402.39 197.765 400.572 198.327 401.001C198.5 401.133 196.793 402.293 194.519 403.568C190.047 406.107 184.159 410.234 184.985 410.317C185.267 410.396 186.829 409.604 188.372 408.66C194.977 404.67 204.073 400.735 207.144 400.479L210.17 400.19L209.239 402.216C208.762 403.289 206.24 406.77 203.668 409.87C199.831 414.536 198.327 416.057 195.022 418.324C181.613 427.727 164.924 430.313 143.778 426.278C136.414 424.898 131.899 423.64 131.97 423.01C132.041 422.38 136.237 415.181 138.375 412.023C141.361 407.665 146.25 402.159 149.999 398.863ZM222.467 332.106C224.298 330.425 227.781 327.747 230.233 326.06C235.212 322.676 245.789 317.339 246.808 317.707C247.741 318.009 249.794 334.77 249.739 341.025C249.437 360.778 242.774 376.495 230.636 386.116C225.828 389.903 218.394 394.082 218.032 393.121C217.617 392.051 218.575 388.198 219.938 385.337C221.156 382.846 226.937 373.573 229.327 370.264L230.274 368.934L228.973 369.652C228.219 370.102 225.986 372.846 223.432 376.371L219.191 382.372L220.304 377.062C220.917 374.108 222.253 369.311 223.29 366.339C225.018 361.567 225.637 360.398 228.961 355.955C231.041 353.232 233.383 350.434 234.15 349.788C234.917 349.142 235.336 348.504 235.12 348.339C234.904 348.174 233.547 349.054 232.122 350.293L229.437 352.554L232.404 346.607C234.021 343.325 235.351 340.508 235.33 340.356C235.3 340.127 234.089 341.803 232.611 344.096L229.932 348.142L229.799 345.986C229.682 343.092 229.131 343.903 228.783 347.675C228.604 349.523 227.81 351.996 226.848 353.794C225.256 356.685 222.424 363.351 220.473 368.773C219.928 370.205 219.451 371.277 219.321 371.178C219.235 371.112 218.684 369.323 218.17 367.219C217.622 365.158 216.962 363.423 216.734 363.454C216.505 363.484 216.797 366.239 217.355 369.54C218.328 375.347 218.236 375.825 216.462 383.436C215.456 387.801 214.511 391.459 214.346 391.675C214.016 392.107 211.019 385.097 209.751 380.843C206.113 368.758 206.9 355.807 211.938 345.625C213.644 342.137 218.913 335.416 222.467 332.106Z" fill="#376631"/>
<path d="M529.921 316.02C537.85 326.688 539.727 338.677 535.659 352.727C534.615 356.415 532.114 361.847 530.654 363.775C529.703 364.979 529.459 366.109 529.265 371.384L528.986 377.578L530.85 375.507C539.533 365.933 552.789 362.49 568.179 365.763C575.903 367.462 576.659 369.139 572.795 376.286C569.026 383.344 566.072 387.291 560.632 392.404C554.845 397.907 551.791 399.733 545.292 401.78C539.321 403.625 534.161 403.741 525.911 402.183L524.414 401.93L523.094 406.778C521.744 411.656 519.175 419.788 516.856 426.545C516.162 428.522 515.815 430.11 516 430.053C516.247 429.998 517.523 429.324 518.924 428.531C522.537 426.473 529.125 424.52 533.584 424.233C540.564 423.764 549.725 425.714 557.705 429.445C564.987 432.821 566.398 434.115 565.896 436.988C565.538 439.005 559.728 445.429 554.181 449.924C543.213 458.797 532.951 462.806 521.936 462.559C516.323 462.387 512.386 461.459 506.373 458.852C503.944 457.809 502.542 457.405 502.318 457.737C502.127 458.039 500.334 460.941 498.319 464.175C494.386 470.431 483.937 485.517 482.71 486.684C481.484 487.85 482.654 487.695 486.437 486.194C493.942 483.19 503.534 482.634 511.403 484.673C515.582 485.73 520.649 488.099 524.845 490.937C528.376 493.328 537.082 502.357 540.431 507.139C544.253 512.607 543.845 514.193 538.134 516.689C526.991 521.536 511.06 523.928 500.787 522.258C496.171 521.497 488.049 518.499 484.18 516.13C480.584 513.86 474.316 507.962 472.154 504.807C471.325 503.619 470.552 502.617 470.429 502.614C470.306 502.611 467.938 505.222 465.125 508.436C452.42 522.913 444.829 530.551 443.111 530.507C441.546 530.499 440.185 529.697 439.723 528.519C439.172 527.246 439.554 526.703 445.573 520.5C452.821 513.069 463.981 500.242 464.002 499.383C464.007 499.199 462.642 498.52 460.971 497.833C448.787 492.829 440.261 482.73 436.051 468.288C433.903 460.927 433.119 454.246 433.345 445.288C433.519 437.157 434.004 434.959 435.748 433.959C437.274 433.107 438.985 433.396 445.25 435.764C455.5 439.552 461.271 443.227 467.369 449.766C474.605 457.439 477.861 465.901 478.009 477.079C478.014 479.351 478.09 481.195 478.213 481.198C478.52 481.206 485.915 470.34 490.485 463.18C497.36 452.271 497.809 451.484 497.023 451.034C496.659 450.841 494.753 449.718 492.848 448.596C485.887 444.614 480.365 438.366 476.936 430.667C472.84 421.446 471.602 409.627 473.525 397.856C474.837 389.662 476.031 387.328 478.912 387.523C482.161 387.728 492.752 393.827 498.338 398.757C505.246 404.825 509.864 412.83 511.163 420.998C511.375 422.354 511.685 423.437 511.839 423.41C512.882 423.436 520.054 399.487 519.277 398.67C519.157 398.544 517.511 398.073 515.62 397.595C506.006 395.358 497.55 388.606 492.72 379.244C489.03 372.152 486.415 361.403 486.287 353.081C486.3 350.134 486.405 349.615 487.506 348.568C488.544 347.581 489.13 347.442 491.306 347.589C492.747 347.656 496.351 348.422 499.339 349.234L504.795 350.753L503.855 349.072C500.681 343.466 498.48 336.995 497.594 330.71C496.578 323.531 497.303 310.564 499.214 302.937C500.1 299.46 501.557 297.655 503.489 297.734C506.587 297.843 517.753 304.294 523.551 309.321C527.426 312.703 527.456 312.735 529.921 316.02ZM519.358 311.272C515.958 308.516 511.758 305.862 507.331 303.664C503.238 301.627 503.648 301.176 502.378 308.973C499.874 324.29 501.556 336.765 507.501 346.922C509.24 349.821 514.798 355.855 517.604 357.798C520.681 359.963 524.53 361.933 524.786 361.509C524.915 361.267 524.883 360.1 524.697 358.959C524.444 356.804 521.779 351.672 517.875 345.802C516.809 344.24 515.957 342.714 515.962 342.53C516.009 341.887 520.859 347.995 522.331 350.488C523.066 351.765 523.747 352.795 523.869 352.799C524.267 352.839 523.34 348.211 521.982 343.634C519.834 336.273 519.075 334.719 515.435 330.514C512.034 326.622 511.898 325.912 515.091 328.326L516.988 329.816L514.56 325.058C512.071 320.237 511.802 318.757 514.211 323.054C516.208 326.665 516.54 326.889 516.688 324.651C516.832 322.598 517.062 323.218 517.384 326.265C517.509 327.404 518.423 330.129 519.472 332.365C520.489 334.632 521.937 338.107 522.653 340.12C523.37 342.134 524.033 343.839 524.153 343.964C524.273 344.09 524.73 342.997 525.167 341.503C525.633 340.042 526.123 338.857 526.278 338.83C526.43 338.864 526.198 340.762 525.742 343.053C524.999 346.933 525.07 347.764 526.264 353.995C526.999 357.728 527.63 360.721 527.693 360.662C528.133 360.243 530.277 355.569 531.135 353.196C534.042 345.042 534.373 336.762 532.138 329.184C530.269 322.936 525.376 316.09 519.358 311.272ZM567.157 369.79C565.355 369.407 561.806 368.949 559.23 368.823C546.873 368.236 537.277 372.63 531.465 381.57C529.229 385.014 526.812 390.785 526.272 393.934L525.982 395.707L527.829 394.311C532.179 391.013 534.481 388.584 535.963 385.797C537.703 382.525 538.326 382.173 537.176 385.183L536.354 387.342L540.966 384.634C543.49 383.131 546.321 381.637 547.221 381.261C548.397 380.86 549.368 380.117 550.38 378.915C551.866 377.202 551.866 377.202 551.186 378.628L550.505 380.054L552.986 379.073C556.457 377.748 556.075 378.291 552.41 379.979C550.734 380.735 549.273 381.466 549.178 381.555C549.084 381.645 550.003 381.73 551.228 381.822C553.497 381.94 553.247 382.118 549.733 382.705C544.955 383.475 540.537 385.82 535.111 390.38L532.099 392.945L535.442 391.862C538.97 390.723 541.963 390.154 541.982 390.615C541.947 390.767 540.459 391.344 538.664 391.913C532.633 393.695 526.656 396.983 527.583 397.958C528.122 398.524 532.096 399.176 535.136 399.161C540.875 399.213 546.72 397.488 552.085 394.123C556.171 391.555 562.441 385.174 565.445 380.461C567.937 376.594 570.87 371.05 570.571 370.735C570.452 370.609 568.927 370.203 567.157 369.79ZM510.846 359.194C507.076 356.49 502.068 354.245 496.974 352.92C494.564 352.337 492.122 351.785 491.571 351.71C490.621 351.655 490.558 351.715 490.439 352.786C490.334 354.503 491.174 361.37 492.002 365.074C494.424 376.187 500.243 385.267 507.923 389.942C511.129 391.864 514.99 393.343 517.805 393.721L519.488 393.917L518.827 392.15C518.25 390.662 517.476 389.722 513.55 385.908C511.033 383.451 509.091 381.345 509.248 381.195C509.5 380.956 514.02 384.324 515.846 386.181L516.952 387.345L516.228 385.638C513.501 379.307 508.354 372.823 504.327 370.603C501.692 369.155 501.425 368.811 503.256 369.226C504.081 369.4 505.052 369.854 505.351 370.169C505.68 370.514 505.922 370.643 505.927 370.459C505.931 370.275 504.804 368.712 503.406 366.927L500.846 363.731L503.302 366.188C505.698 368.581 505.728 368.612 505.392 367.315C504.831 365.213 505.463 365.689 506.235 367.95C506.722 369.343 507.61 370.655 509.165 372.291C510.36 373.61 512.205 375.928 513.18 377.457C514.186 378.956 515.137 380.208 515.259 380.211C515.412 380.245 515.562 379.144 515.626 377.825C515.74 374.544 516.092 375.166 516.451 379.197C516.657 381.996 517.084 383.327 519.042 387.275C520.357 389.917 521.531 392.034 521.654 392.037C522.113 392.079 522.824 387.032 522.853 383.41C522.956 373.252 518.806 364.92 510.846 359.194ZM557.224 433.915C547.033 428.992 538.11 427.356 529.658 428.985C521.636 430.564 514.142 435.594 508.796 443.073C506.094 446.78 504.154 450.661 505.081 450.439C505.482 450.357 508.06 449.163 510.918 447.823C515.797 445.459 516.203 445.193 518.884 442.344C521.785 439.286 522.241 439.451 519.918 442.738L518.742 444.336L523.195 443.036C525.638 442.33 529.004 441.524 530.7 441.229C532.396 440.934 534.935 440.077 536.366 439.315C538.73 438.085 538.823 438.057 537.568 439.13L536.187 440.324L538.248 440.16C544.277 439.698 544.115 440.032 537.766 441.039C533.419 441.758 533.419 441.758 537.542 442.629C540.045 443.183 538.627 443.393 533.629 443.176C528.875 443.025 527.613 443.147 523.836 444.403C519.161 445.973 513.39 448.407 513.069 448.951C513.003 449.134 514.292 449.166 515.953 449.024C519.491 448.714 524.213 448.956 524.232 449.416C524.227 449.601 522.102 449.885 519.489 450.034C511.832 450.547 507.015 451.654 505.224 453.297C504.878 453.626 508.333 455.371 511.649 456.59C523.332 460.752 536.542 457.953 549.117 448.631C554.248 444.83 562.184 436.864 561.526 436.172C561.377 436.015 559.438 434.984 557.224 433.915ZM490.715 397.92C487.303 395.655 481.064 392.305 479.841 392.09C478.894 391.913 478.861 392.004 478.512 393.653C476.269 404.71 476.473 416.135 479.054 424.58C481.837 433.553 487.912 441.012 496.509 445.833C497.872 446.574 499.148 447.097 499.305 446.947C499.903 446.379 498.889 442.731 497.215 439.711C496.307 438 494.45 434.914 493.09 432.854C490.814 429.389 490.755 429.265 492.312 430.839C493.929 432.476 496.214 435.572 497.688 438.004L498.397 439.127L498.286 437.436C498.163 434.977 496.123 428.233 494.406 424.475C493.356 422.3 491.997 420.178 490.119 417.951C488.568 416.132 487.533 414.602 487.748 414.576C487.995 414.521 488.629 414.936 489.197 415.534C491.052 417.484 491.078 416.441 489.259 413.079C488.262 411.212 487.503 409.658 487.598 409.569C487.786 409.389 490.22 412.705 490.595 413.666C490.857 414.256 490.951 414.166 491.259 412.915C491.606 411.327 491.752 411.607 492.106 414.625C492.236 415.58 492.924 417.5 493.626 418.869C494.359 420.268 495.722 423.403 496.644 425.821C497.534 428.269 498.399 430.501 498.514 430.811C498.629 431.12 499.085 430.088 499.493 428.502C500.707 424.173 501.005 424.549 500.146 429.378C499.434 433.29 499.474 434.15 500.573 439.274C501.263 442.33 501.872 444.986 501.928 445.171C502.1 445.667 504.549 441.062 505.442 438.537C507.061 433.942 507.717 427.389 507.084 422.062C506.626 418.305 504.671 413.037 502.426 409.543C500.329 406.267 494.28 400.22 490.715 397.92ZM522.002 494.119C510.504 486.247 497.387 485.365 484.119 491.692C480.484 493.412 475.552 496.665 475.505 497.308C475.499 497.554 478.592 497.846 482.396 497.942C488.962 498.107 489.454 498.058 493.484 496.502C497.917 494.802 498.68 494.975 495.04 496.879C492.148 498.372 492.148 498.372 494.349 498.734C498.171 499.352 504.214 500.732 506.619 501.56C507.958 502.024 510.16 502.325 511.513 502.236C514.005 502.022 515.467 502.489 513.372 502.805C511.369 503.092 511.608 503.343 515.105 504.69C518.54 506.035 519.865 507.051 516.731 505.959C513.961 504.999 508.599 503.39 508.473 503.51C508.441 503.54 509.339 504.484 510.508 505.587L512.668 507.606L509.371 505.651C504.561 502.798 501.611 501.71 496.872 500.946C492.194 500.184 484.258 499.585 483.849 499.974C483.724 500.094 485.178 500.867 487.091 501.683C490.857 503.312 495.883 506.079 495.235 506.216C495.018 506.303 493.71 505.809 492.406 505.193C486.823 502.597 479.268 500.258 476.811 500.319L474.385 500.35L475.298 501.877C475.769 502.687 478.068 505.232 480.376 507.469C483.822 510.841 485.145 511.918 487.962 513.432C499.407 519.737 512.869 520.352 529.296 515.331C535.019 513.603 538.492 512.216 538.382 511.722C538.271 511.229 534.323 505.88 532.355 503.558C529.611 500.358 525.259 496.411 522.002 494.119ZM458.771 447.401C457.174 446.225 454.181 444.4 452.091 443.273C447.85 441.017 439 437.694 438.223 438.073C437.509 438.393 437.323 451.865 437.905 456.822C439.844 472.466 446.483 484.36 456.939 490.947C461.079 493.538 467.336 496.212 467.54 495.419C467.777 494.535 466.686 491.561 465.358 489.409C464.177 487.537 458.794 480.679 456.613 478.26L455.748 477.287L456.841 477.744C457.479 478.036 459.485 480.021 461.815 482.597L465.695 486.992L464.356 482.876C463.616 480.585 462.143 476.895 461.064 474.627C459.283 470.99 458.691 470.116 455.672 466.878C453.788 464.897 451.69 462.879 451.025 462.433C450.361 461.986 449.974 461.516 450.131 461.366C450.289 461.217 451.44 461.798 452.677 462.658L455.002 464.221L452.136 459.759C450.571 457.294 449.274 455.174 449.277 455.052C449.282 454.867 450.387 456.093 451.756 457.785L454.229 460.763L454.15 459.042C453.993 456.736 454.5 457.332 455.101 460.294C455.402 461.745 456.245 463.638 457.162 464.981C458.674 467.138 461.494 472.182 463.508 476.315C464.064 477.404 464.535 478.214 464.629 478.124C464.692 478.064 464.975 476.598 465.202 474.885C465.459 473.203 465.833 471.769 466.017 471.774C466.201 471.778 466.207 473.989 466.048 476.656C465.776 481.346 465.89 481.717 467.952 487.602C469.125 490.977 470.19 493.798 470.34 493.955C470.639 494.269 472.412 488.451 473.053 484.967C474.898 475.067 473.159 464.862 468.287 457.218C466.633 454.598 461.875 449.72 458.771 447.401Z" fill="#376631"/>
<path d="M418.715 28.2956C428.191 41.0467 430.436 55.377 425.573 72.1704C424.325 76.579 421.336 83.072 419.59 85.3764C418.453 86.8156 418.162 88.1659 417.93 94.4714L417.597 101.875L419.824 99.3993C430.203 87.9552 446.048 83.8405 464.443 87.7526C473.676 89.783 474.579 91.7871 469.961 100.331C465.456 108.767 461.924 113.485 455.423 119.596C448.505 126.174 444.855 128.357 437.087 130.803C429.95 133.009 423.782 133.147 413.921 131.284L412.131 130.982L410.554 136.777C408.94 142.607 405.87 152.327 403.098 160.404C402.268 162.768 401.853 164.666 402.075 164.598C402.37 164.532 403.895 163.726 405.57 162.778C409.888 160.318 417.763 157.984 423.092 157.641C431.436 157.08 442.385 159.411 451.923 163.871C460.628 167.906 462.314 169.453 461.714 172.887C461.286 175.298 454.342 182.976 447.712 188.349C434.602 198.954 422.336 203.746 409.17 203.451C402.46 203.246 397.755 202.137 390.568 199.02C387.664 197.773 385.988 197.291 385.721 197.688C385.492 198.049 383.35 201.517 380.941 205.383C376.239 212.86 363.75 230.893 362.284 232.287C360.818 233.681 362.217 233.496 366.738 231.702C375.709 228.112 387.174 227.446 396.579 229.884C401.575 231.148 407.631 233.979 412.646 237.371C416.868 240.229 427.274 251.022 431.276 256.737C435.845 263.273 435.357 265.169 428.531 268.153C415.212 273.945 396.169 276.805 383.89 274.808C378.373 273.899 368.666 270.316 364.04 267.484C359.742 264.771 352.25 257.72 349.666 253.949C348.675 252.53 347.751 251.332 347.604 251.329C347.457 251.325 344.627 254.446 341.264 258.288C326.078 275.592 317.005 284.721 314.952 284.669C313.081 284.659 311.453 283.7 310.902 282.292C310.243 280.771 310.7 280.122 317.895 272.707C326.558 263.825 339.896 248.493 339.922 247.466C339.928 247.246 338.297 246.434 336.299 245.614C321.736 239.633 311.545 227.561 306.512 210.299C303.945 201.501 303.008 193.515 303.278 182.807C303.486 173.088 304.065 170.461 306.15 169.266C307.974 168.248 310.02 168.593 317.508 171.423C329.76 175.951 336.658 180.344 343.946 188.16C352.596 197.331 356.487 207.446 356.665 220.807C356.67 223.523 356.761 225.727 356.908 225.73C357.275 225.74 366.114 212.752 371.577 204.193C379.794 191.154 380.332 190.213 379.391 189.676C378.957 189.445 376.679 188.103 374.401 186.762C366.081 182.002 359.48 174.534 355.382 165.331C350.486 154.31 349.007 140.182 351.305 126.113C352.873 116.318 354.301 113.529 357.744 113.762C361.627 114.007 374.287 121.297 380.963 127.189C389.221 134.442 394.741 144.011 396.293 153.774C396.546 155.395 396.917 156.689 397.101 156.657C398.348 156.688 406.921 128.063 405.991 127.085C405.848 126.935 403.881 126.372 401.62 125.801C390.129 123.127 380.021 115.057 374.248 103.867C369.838 95.3895 366.712 82.5414 366.559 72.5935C366.574 69.0713 366.7 68.4507 368.016 67.1995C369.256 66.0199 369.958 65.854 372.558 66.0296C374.281 66.1096 378.588 67.0252 382.159 67.9958L388.682 69.8111L387.558 67.8014C383.764 61.101 381.133 53.3658 380.075 45.8537C378.859 37.2735 379.726 21.7738 382.011 12.6579C383.069 8.50144 384.812 6.34366 387.121 6.43845C390.824 6.56833 404.17 14.2796 411.1 20.2883C415.732 24.3311 415.768 24.3687 418.715 28.2956ZM406.088 22.6206C402.024 19.326 397.004 16.1541 391.713 13.5258C386.82 11.091 387.311 10.5529 385.792 19.8716C382.8 38.1799 384.809 53.0914 391.916 65.2324C393.994 68.6972 400.637 75.9095 403.991 78.2323C407.669 80.82 412.27 83.1741 412.576 82.6681C412.73 82.3784 412.692 80.9831 412.469 79.6198C412.167 77.0436 408.983 70.909 404.316 63.8932C403.042 62.0264 402.023 60.2028 402.029 59.9828C402.085 59.2136 407.882 66.5148 409.642 69.4946C410.521 71.0211 411.334 72.2525 411.481 72.2562C411.956 72.3048 410.848 66.7729 409.224 61.3014C406.657 52.5037 405.75 50.6461 401.4 45.6197C397.334 40.9674 397.171 40.1193 400.988 43.0041L403.255 44.7858L400.353 39.0986C397.379 33.3362 397.056 31.5668 399.936 36.703C402.323 41.0195 402.719 41.2864 402.897 38.6122C403.069 36.158 403.344 36.8988 403.729 40.5412C403.878 41.9026 404.97 45.1592 406.224 47.8327C407.44 50.5419 409.17 54.6951 410.027 57.1018C410.884 59.5084 411.677 61.5465 411.82 61.6969C411.963 61.8473 412.509 60.5401 413.031 58.7552C413.589 57.0079 414.175 55.5916 414.359 55.5596C414.542 55.6008 414.264 57.8689 413.718 60.6072C412.831 65.245 412.916 66.2378 414.343 73.6859C415.222 78.1479 415.976 81.7262 416.051 81.6547C416.577 81.1542 419.14 75.5679 420.165 72.7315C423.639 62.9851 424.035 53.0877 421.364 44.0305C419.13 36.5622 413.282 28.3791 406.088 22.6206ZM463.221 92.5655C461.068 92.1077 456.825 91.5606 453.747 91.4097C438.977 90.7078 427.506 95.9599 420.559 106.646C417.887 110.762 414.998 117.661 414.353 121.425L414.006 123.544L416.213 121.875C421.413 117.933 424.164 115.03 425.936 111.699C428.016 107.788 428.76 107.367 427.386 110.965L426.403 113.545L431.916 110.308C434.933 108.513 438.317 106.726 439.392 106.276C440.799 105.798 441.959 104.91 443.169 103.473C444.945 101.426 444.945 101.426 444.132 103.13L443.318 104.834L446.283 103.661C450.433 102.078 449.976 102.727 445.595 104.745C443.591 105.648 441.845 106.522 441.732 106.629C441.619 106.736 442.717 106.837 444.182 106.947C446.894 107.089 446.595 107.302 442.395 108.003C436.684 108.924 431.403 111.726 424.918 117.177L421.318 120.242L425.313 118.948C429.531 117.587 433.107 116.906 433.13 117.457C433.089 117.64 431.31 118.329 429.165 119.009C421.956 121.139 414.812 125.069 415.92 126.234C416.563 126.911 421.314 127.691 424.947 127.672C431.807 127.735 438.794 125.672 445.207 121.651C450.091 118.581 457.585 110.954 461.176 105.32C464.154 100.698 467.66 94.0715 467.303 93.6956C467.16 93.5452 465.337 93.059 463.221 92.5655ZM395.914 79.9004C391.408 76.668 385.421 73.9855 379.333 72.4013C376.452 71.705 373.533 71.0444 372.875 70.9545C371.739 70.8892 371.664 70.9607 371.521 72.2414C371.396 74.2931 372.401 82.5011 373.39 86.9292C376.285 100.212 383.241 111.065 392.42 116.653C396.252 118.951 400.868 120.718 404.232 121.17L406.244 121.404L405.453 119.293C404.764 117.514 403.839 116.39 399.146 111.832C396.138 108.894 393.816 106.377 394.004 106.198C394.305 105.912 399.708 109.938 401.89 112.158L403.213 113.549L402.347 111.509C399.088 103.941 392.935 96.1908 388.122 93.5378C384.973 91.8074 384.653 91.3957 386.842 91.8911C387.827 92.0994 388.988 92.6423 389.346 93.0182C389.739 93.4318 390.028 93.5858 390.034 93.3658C390.039 93.1458 388.692 91.2772 387.021 89.1436L383.962 85.3238L386.897 88.2598C389.76 91.1206 389.796 91.1582 389.395 89.6069C388.724 87.0949 389.48 87.6643 390.403 90.3662C390.985 92.0321 392.046 93.5999 393.905 95.5548C395.333 97.1318 397.538 99.9026 398.703 101.73C399.906 103.522 401.042 105.018 401.189 105.022C401.372 105.063 401.551 103.746 401.628 102.17C401.763 98.2477 402.185 98.9921 402.614 103.81C402.86 107.155 403.37 108.746 405.71 113.465C407.282 116.623 408.686 119.154 408.833 119.157C409.382 119.208 410.231 113.175 410.266 108.846C410.388 96.7034 405.428 86.7447 395.914 79.9004ZM451.349 169.213C439.168 163.329 428.502 161.373 418.399 163.321C408.811 165.208 399.854 171.22 393.464 180.159C390.234 184.591 387.915 189.23 389.023 188.964C389.502 188.866 392.584 187.439 396 185.837C401.832 183.012 402.317 182.694 405.522 179.289C408.989 175.633 409.535 175.83 406.757 179.76L405.352 181.669L410.675 180.115C413.595 179.272 417.618 178.309 419.645 177.956C421.673 177.603 424.707 176.579 426.418 175.668C429.244 174.198 429.355 174.164 427.855 175.447L426.204 176.874L428.668 176.679C435.873 176.126 435.68 176.525 428.091 177.728C422.895 178.588 422.895 178.588 427.823 179.63C430.815 180.292 429.121 180.543 423.146 180.282C417.463 180.103 415.955 180.248 411.441 181.749C405.853 183.627 398.954 186.535 398.571 187.186C398.492 187.404 400.032 187.443 402.018 187.273C406.247 186.902 411.891 187.191 411.914 187.742C411.908 187.962 409.368 188.302 406.244 188.48C397.092 189.094 391.335 190.417 389.194 192.381C388.78 192.774 392.911 194.86 396.874 196.317C410.839 201.292 426.628 197.946 441.659 186.803C447.791 182.26 457.278 172.738 456.491 171.911C456.313 171.723 453.995 170.491 451.349 169.213ZM371.852 126.189C367.774 123.482 360.315 119.478 358.854 119.221C357.722 119.009 357.683 119.118 357.266 121.089C354.585 134.305 354.829 147.961 357.914 158.056C361.24 168.781 368.501 177.697 378.777 183.459C380.406 184.344 381.931 184.97 382.119 184.791C382.834 184.112 381.622 179.751 379.622 176.142C378.536 174.096 376.317 170.408 374.691 167.945C371.97 163.804 371.9 163.655 373.761 165.536C375.693 167.493 378.425 171.195 380.187 174.101L381.034 175.443L380.901 173.422C380.755 170.483 378.316 162.422 376.264 157.93C375.008 155.33 373.384 152.794 371.139 150.133C369.286 147.958 368.048 146.129 368.305 146.098C368.601 146.032 369.359 146.528 370.038 147.243C372.254 149.574 372.286 148.327 370.112 144.309C368.92 142.077 368.013 140.22 368.126 140.113C368.351 139.898 371.26 143.861 371.709 145.01C372.021 145.715 372.134 145.608 372.502 144.112C372.916 142.215 373.091 142.549 373.514 146.156C373.669 147.297 374.492 149.593 375.332 151.229C376.207 152.902 377.837 156.649 378.939 159.539C380.002 162.465 381.036 165.132 381.174 165.503C381.311 165.873 381.856 164.639 382.344 162.744C383.795 157.57 384.151 158.019 383.125 163.791C382.273 168.466 382.321 169.495 383.634 175.619C384.46 179.272 385.187 182.446 385.255 182.668C385.46 183.26 388.387 177.757 389.454 174.738C391.39 169.246 392.175 161.413 391.417 155.046C390.87 150.556 388.533 144.259 385.85 140.082C383.343 136.166 376.113 128.939 371.852 126.189ZM409.248 241.175C395.505 231.765 379.826 230.71 363.968 238.274C359.623 240.33 353.727 244.217 353.671 244.987C353.664 245.28 357.361 245.63 361.908 245.744C369.756 245.942 370.344 245.883 375.161 244.023C380.46 241.991 381.372 242.198 377.022 244.473C373.564 246.258 373.564 246.258 376.195 246.691C380.763 247.43 387.987 249.079 390.861 250.069C392.462 250.623 395.094 250.983 396.712 250.877C399.69 250.621 401.438 251.179 398.933 251.556C396.539 251.9 396.825 252.2 401.004 253.81C405.11 255.418 406.694 256.632 402.948 255.327C399.637 254.179 393.228 252.257 393.077 252.4C393.04 252.435 394.112 253.563 395.51 254.883L398.091 257.296L394.15 254.958C388.402 251.548 384.875 250.248 379.211 249.335C373.62 248.424 364.134 247.708 363.645 248.173C363.495 248.316 365.233 249.24 367.52 250.215C372.021 252.163 378.029 255.47 377.254 255.634C376.995 255.738 375.432 255.148 373.873 254.412C367.199 251.308 358.169 248.512 355.232 248.585L352.332 248.622L353.424 250.448C353.987 251.416 356.736 254.457 359.494 257.132C363.612 261.162 365.194 262.449 368.561 264.259C382.242 271.795 398.332 272.53 417.967 266.529C424.807 264.463 428.959 262.806 428.827 262.216C428.695 261.625 423.976 255.232 421.624 252.457C418.344 248.632 413.142 243.915 409.248 241.175ZM333.67 185.333C331.761 183.927 328.183 181.746 325.685 180.399C320.615 177.703 310.038 173.73 309.109 174.184C308.255 174.566 308.034 190.669 308.728 196.594C311.047 215.293 318.982 229.51 331.48 237.383C336.429 240.48 343.907 243.677 344.151 242.729C344.435 241.672 343.13 238.116 341.543 235.545C340.132 233.308 333.696 225.11 331.091 222.219L330.056 221.055L331.363 221.602C332.125 221.951 334.523 224.323 337.308 227.402L341.946 232.656L340.345 227.735C339.46 224.998 337.7 220.587 336.41 217.876C334.281 213.529 333.574 212.484 329.965 208.614C327.713 206.245 325.205 203.834 324.411 203.3C323.617 202.766 323.155 202.204 323.343 202.026C323.531 201.847 324.907 202.542 326.386 203.57L329.164 205.438L325.739 200.105C323.869 197.159 322.318 194.624 322.322 194.478C322.327 194.258 323.648 195.722 325.285 197.745L328.241 201.305L328.146 199.248C327.958 196.491 328.564 197.203 329.283 200.744C329.643 202.478 330.65 204.741 331.747 206.347C333.553 208.924 336.924 214.953 339.332 219.894C339.996 221.195 340.559 222.163 340.672 222.056C340.747 221.985 341.085 220.232 341.356 218.184C341.664 216.173 342.11 214.46 342.33 214.466C342.55 214.471 342.557 217.113 342.367 220.301C342.043 225.907 342.178 226.351 344.643 233.384C346.046 237.419 347.319 240.79 347.498 240.978C347.855 241.354 349.975 234.399 350.74 230.235C352.946 218.402 350.868 206.204 345.043 197.068C343.067 193.936 337.38 188.105 333.67 185.333Z" fill="#376631"/>
<path d="M418.715 28.2956C428.191 41.0467 430.436 55.377 425.573 72.1704C424.325 76.579 421.336 83.072 419.59 85.3764C418.453 86.8156 418.162 88.1659 417.93 94.4714L417.597 101.875L419.824 99.3993C430.203 87.9552 446.048 83.8405 464.443 87.7526C473.676 89.783 474.579 91.7871 469.961 100.331C465.456 108.767 461.924 113.485 455.423 119.596C448.505 126.174 444.855 128.357 437.087 130.803C429.95 133.009 423.782 133.147 413.921 131.284L412.131 130.982L410.554 136.777C408.94 142.607 405.87 152.327 403.098 160.404C402.268 162.768 401.853 164.666 402.075 164.598C402.37 164.532 403.895 163.726 405.57 162.778C409.888 160.318 417.763 157.984 423.092 157.641C431.436 157.08 442.385 159.411 451.923 163.871C460.628 167.906 462.314 169.453 461.714 172.887C461.286 175.298 454.342 182.976 447.712 188.349C434.602 198.954 422.336 203.746 409.17 203.451C402.46 203.246 397.755 202.137 390.568 199.02C387.664 197.773 385.988 197.291 385.721 197.688C385.492 198.049 383.35 201.517 380.941 205.383C376.239 212.86 363.75 230.893 362.284 232.287C360.818 233.681 362.217 233.496 366.738 231.702C375.709 228.112 387.174 227.446 396.579 229.884C401.575 231.148 407.631 233.979 412.646 237.371C416.868 240.229 427.274 251.022 431.276 256.737C435.845 263.273 435.357 265.169 428.531 268.153C415.212 273.945 396.169 276.805 383.89 274.808C378.373 273.899 368.666 270.316 364.04 267.484C359.742 264.771 352.25 257.72 349.666 253.949C348.675 252.53 347.751 251.332 347.604 251.329C347.457 251.325 344.627 254.446 341.264 258.288C326.078 275.592 317.005 284.721 314.952 284.669C313.081 284.659 311.453 283.7 310.902 282.292C310.243 280.771 310.7 280.122 317.895 272.707C326.558 263.825 339.896 248.493 339.922 247.466C339.928 247.246 338.297 246.434 336.299 245.614C321.736 239.633 311.545 227.561 306.512 210.299C303.945 201.501 303.008 193.515 303.278 182.807C303.486 173.088 304.065 170.461 306.15 169.266C307.974 168.248 310.02 168.593 317.508 171.423C329.76 175.951 336.658 180.344 343.946 188.16C352.596 197.331 356.487 207.446 356.665 220.807C356.67 223.523 356.761 225.727 356.908 225.73C357.275 225.74 366.114 212.752 371.577 204.193C379.794 191.154 380.332 190.213 379.391 189.676C378.957 189.445 376.679 188.103 374.401 186.762C366.081 182.002 359.48 174.534 355.382 165.331C350.486 154.31 349.007 140.182 351.305 126.113C352.873 116.318 354.301 113.529 357.744 113.762C361.627 114.007 374.287 121.297 380.963 127.189C389.221 134.442 394.741 144.011 396.293 153.774C396.546 155.395 396.917 156.689 397.101 156.657C398.348 156.688 406.921 128.063 405.991 127.085C405.848 126.935 403.881 126.372 401.62 125.801C390.129 123.127 380.021 115.057 374.248 103.867C369.838 95.3895 366.712 82.5414 366.559 72.5935C366.574 69.0713 366.7 68.4507 368.016 67.1995C369.256 66.0199 369.958 65.854 372.558 66.0296C374.281 66.1096 378.588 67.0252 382.159 67.9958L388.682 69.8111L387.558 67.8014C383.764 61.101 381.133 53.3658 380.075 45.8537C378.859 37.2735 379.726 21.7738 382.011 12.6579C383.069 8.50144 384.812 6.34366 387.121 6.43845C390.824 6.56833 404.17 14.2796 411.1 20.2883C415.732 24.3311 415.768 24.3687 418.715 28.2956ZM406.088 22.6206C402.024 19.326 397.004 16.1541 391.713 13.5258C386.82 11.091 387.311 10.5529 385.792 19.8716C382.8 38.1799 384.809 53.0914 391.916 65.2324C393.994 68.6972 400.637 75.9095 403.991 78.2323C407.669 80.82 412.27 83.1741 412.576 82.6681C412.73 82.3784 412.692 80.9831 412.469 79.6198C412.167 77.0436 408.983 70.909 404.316 63.8932C403.042 62.0264 402.023 60.2028 402.029 59.9828C402.085 59.2136 407.882 66.5148 409.642 69.4946C410.521 71.0211 411.334 72.2525 411.481 72.2562C411.956 72.3048 410.848 66.7729 409.224 61.3014C406.657 52.5037 405.75 50.6461 401.4 45.6197C397.334 40.9674 397.171 40.1193 400.988 43.0041L403.255 44.7858L400.353 39.0986C397.379 33.3362 397.056 31.5668 399.936 36.703C402.323 41.0195 402.719 41.2864 402.897 38.6122C403.069 36.158 403.344 36.8988 403.729 40.5412C403.878 41.9026 404.97 45.1592 406.224 47.8327C407.44 50.5419 409.17 54.6951 410.027 57.1018C410.884 59.5084 411.677 61.5465 411.82 61.6969C411.963 61.8473 412.509 60.5401 413.031 58.7552C413.589 57.0079 414.175 55.5916 414.359 55.5596C414.542 55.6008 414.264 57.8689 413.718 60.6072C412.831 65.245 412.916 66.2378 414.343 73.6859C415.222 78.1479 415.976 81.7262 416.051 81.6547C416.577 81.1542 419.14 75.5679 420.165 72.7315C423.639 62.9851 424.035 53.0877 421.364 44.0305C419.13 36.5622 413.282 28.3791 406.088 22.6206ZM463.221 92.5655C461.068 92.1077 456.825 91.5606 453.747 91.4097C438.977 90.7078 427.506 95.9599 420.559 106.646C417.887 110.762 414.998 117.661 414.353 121.425L414.006 123.544L416.213 121.875C421.413 117.933 424.164 115.03 425.936 111.699C428.016 107.788 428.76 107.367 427.386 110.965L426.403 113.545L431.916 110.308C434.933 108.513 438.317 106.726 439.392 106.276C440.799 105.798 441.959 104.91 443.169 103.473C444.945 101.426 444.945 101.426 444.132 103.13L443.318 104.834L446.283 103.661C450.433 102.078 449.976 102.727 445.595 104.745C443.591 105.648 441.845 106.522 441.732 106.629C441.619 106.736 442.717 106.837 444.182 106.947C446.894 107.089 446.595 107.302 442.395 108.003C436.684 108.924 431.403 111.726 424.918 117.177L421.318 120.242L425.313 118.948C429.531 117.587 433.107 116.906 433.13 117.457C433.089 117.64 431.31 118.329 429.165 119.009C421.956 121.139 414.812 125.069 415.92 126.234C416.563 126.911 421.314 127.691 424.947 127.672C431.807 127.735 438.794 125.672 445.207 121.651C450.091 118.581 457.585 110.954 461.176 105.32C464.154 100.698 467.66 94.0715 467.303 93.6956C467.16 93.5452 465.337 93.059 463.221 92.5655ZM395.914 79.9004C391.408 76.668 385.421 73.9855 379.333 72.4013C376.452 71.705 373.533 71.0444 372.875 70.9545C371.739 70.8892 371.664 70.9607 371.521 72.2414C371.396 74.2931 372.401 82.5011 373.39 86.9292C376.285 100.212 383.241 111.065 392.42 116.653C396.252 118.951 400.868 120.718 404.232 121.17L406.244 121.404L405.453 119.293C404.764 117.514 403.839 116.39 399.146 111.832C396.138 108.894 393.816 106.377 394.004 106.198C394.305 105.912 399.708 109.938 401.89 112.158L403.213 113.549L402.347 111.509C399.088 103.941 392.935 96.1908 388.122 93.5378C384.973 91.8074 384.653 91.3957 386.842 91.8911C387.827 92.0994 388.988 92.6423 389.346 93.0182C389.739 93.4318 390.028 93.5858 390.034 93.3658C390.039 93.1458 388.692 91.2772 387.021 89.1436L383.962 85.3238L386.897 88.2598C389.76 91.1206 389.796 91.1582 389.395 89.6069C388.724 87.0949 389.48 87.6643 390.403 90.3662C390.985 92.0321 392.046 93.5999 393.905 95.5548C395.333 97.1318 397.538 99.9026 398.703 101.73C399.906 103.522 401.042 105.018 401.189 105.022C401.372 105.063 401.551 103.746 401.628 102.17C401.763 98.2477 402.185 98.9921 402.614 103.81C402.86 107.155 403.37 108.746 405.71 113.465C407.282 116.623 408.686 119.154 408.833 119.157C409.382 119.208 410.231 113.175 410.266 108.846C410.388 96.7034 405.428 86.7447 395.914 79.9004ZM451.349 169.213C439.168 163.329 428.502 161.373 418.399 163.321C408.811 165.208 399.854 171.22 393.464 180.159C390.234 184.591 387.915 189.23 389.023 188.964C389.502 188.866 392.584 187.439 396 185.837C401.832 183.012 402.317 182.694 405.522 179.289C408.989 175.633 409.535 175.83 406.757 179.76L405.352 181.669L410.675 180.115C413.595 179.272 417.618 178.309 419.645 177.956C421.673 177.603 424.707 176.579 426.418 175.668C429.244 174.198 429.355 174.164 427.855 175.447L426.204 176.874L428.668 176.679C435.873 176.126 435.68 176.525 428.091 177.728C422.895 178.588 422.895 178.588 427.823 179.63C430.815 180.292 429.121 180.543 423.146 180.282C417.463 180.103 415.955 180.248 411.441 181.749C405.853 183.627 398.954 186.535 398.571 187.186C398.492 187.404 400.032 187.443 402.018 187.273C406.247 186.902 411.891 187.191 411.914 187.742C411.908 187.962 409.368 188.302 406.244 188.48C397.092 189.094 391.335 190.417 389.194 192.381C388.78 192.774 392.911 194.86 396.874 196.317C410.839 201.292 426.628 197.946 441.659 186.803C447.791 182.26 457.278 172.738 456.491 171.911C456.313 171.723 453.995 170.491 451.349 169.213ZM371.852 126.189C367.774 123.482 360.315 119.478 358.854 119.221C357.722 119.009 357.683 119.118 357.266 121.089C354.585 134.305 354.829 147.961 357.914 158.056C361.24 168.781 368.501 177.697 378.777 183.459C380.406 184.344 381.931 184.97 382.119 184.791C382.834 184.112 381.622 179.751 379.622 176.142C378.536 174.096 376.317 170.408 374.691 167.945C371.97 163.804 371.9 163.655 373.761 165.536C375.693 167.493 378.425 171.195 380.187 174.101L381.034 175.443L380.901 173.422C380.755 170.483 378.316 162.422 376.264 157.93C375.008 155.33 373.384 152.794 371.139 150.133C369.286 147.958 368.048 146.129 368.305 146.098C368.601 146.032 369.359 146.528 370.038 147.243C372.254 149.574 372.286 148.327 370.112 144.309C368.92 142.077 368.013 140.22 368.126 140.113C368.351 139.898 371.26 143.861 371.709 145.01C372.021 145.715 372.134 145.608 372.502 144.112C372.916 142.215 373.091 142.549 373.514 146.156C373.669 147.297 374.492 149.593 375.332 151.229C376.207 152.902 377.837 156.649 378.939 159.539C380.002 162.465 381.036 165.132 381.174 165.503C381.311 165.873 381.856 164.639 382.344 162.744C383.795 157.57 384.151 158.019 383.125 163.791C382.273 168.466 382.321 169.495 383.634 175.619C384.46 179.272 385.187 182.446 385.255 182.668C385.46 183.26 388.387 177.757 389.454 174.738C391.39 169.246 392.175 161.413 391.417 155.046C390.87 150.556 388.533 144.259 385.85 140.082C383.343 136.166 376.113 128.939 371.852 126.189ZM409.248 241.175C395.505 231.765 379.826 230.71 363.968 238.274C359.623 240.33 353.727 244.217 353.671 244.987C353.664 245.28 357.361 245.63 361.908 245.744C369.756 245.942 370.344 245.883 375.161 244.023C380.46 241.991 381.372 242.198 377.022 244.473C373.564 246.258 373.564 246.258 376.195 246.691C380.763 247.43 387.987 249.079 390.861 250.069C392.462 250.623 395.094 250.983 396.712 250.877C399.69 250.621 401.438 251.179 398.933 251.556C396.539 251.9 396.825 252.2 401.004 253.81C405.11 255.418 406.694 256.632 402.948 255.327C399.637 254.179 393.228 252.257 393.077 252.4C393.04 252.435 394.112 253.563 395.51 254.883L398.091 257.296L394.15 254.958C388.402 251.548 384.875 250.248 379.211 249.335C373.62 248.424 364.134 247.708 363.645 248.173C363.495 248.316 365.233 249.24 367.52 250.215C372.021 252.163 378.029 255.47 377.254 255.634C376.995 255.738 375.432 255.148 373.873 254.412C367.199 251.308 358.169 248.512 355.232 248.585L352.332 248.622L353.424 250.448C353.987 251.416 356.736 254.457 359.494 257.132C363.612 261.162 365.194 262.449 368.561 264.259C382.242 271.795 398.332 272.53 417.967 266.529C424.807 264.463 428.959 262.806 428.827 262.216C428.695 261.625 423.976 255.232 421.624 252.457C418.344 248.632 413.142 243.915 409.248 241.175ZM333.67 185.333C331.761 183.927 328.183 181.746 325.685 180.399C320.615 177.703 310.038 173.73 309.109 174.184C308.255 174.566 308.034 190.669 308.728 196.594C311.047 215.293 318.982 229.51 331.48 237.383C336.429 240.48 343.907 243.677 344.151 242.729C344.435 241.672 343.13 238.116 341.543 235.545C340.132 233.308 333.696 225.11 331.091 222.219L330.056 221.055L331.363 221.602C332.125 221.951 334.523 224.323 337.308 227.402L341.946 232.656L340.345 227.735C339.46 224.998 337.7 220.587 336.41 217.876C334.281 213.529 333.574 212.484 329.965 208.614C327.713 206.245 325.205 203.834 324.411 203.3C323.617 202.766 323.155 202.204 323.343 202.026C323.531 201.847 324.907 202.542 326.386 203.57L329.164 205.438L325.739 200.105C323.869 197.159 322.318 194.624 322.322 194.478C322.327 194.258 323.648 195.722 325.285 197.745L328.241 201.305L328.146 199.248C327.958 196.491 328.564 197.203 329.283 200.744C329.643 202.478 330.65 204.741 331.747 206.347C333.553 208.924 336.924 214.953 339.332 219.894C339.996 221.195 340.559 222.163 340.672 222.056C340.747 221.985 341.085 220.232 341.356 218.184C341.664 216.173 342.11 214.46 342.33 214.466C342.55 214.471 342.557 217.113 342.367 220.301C342.043 225.907 342.178 226.351 344.643 233.384C346.046 237.419 347.319 240.79 347.498 240.978C347.855 241.354 349.975 234.399 350.74 230.235C352.946 218.402 350.868 206.204 345.043 197.068C343.067 193.936 337.38 188.105 333.67 185.333Z" fill="#376631"/>
<path d="M223.848 65.2132C219.466 71.1092 218.428 77.7355 220.677 85.5008C221.254 87.5393 222.636 90.5416 223.443 91.6072C223.969 92.2726 224.104 92.897 224.211 95.8127L224.365 99.2361L223.335 98.0913C218.536 92.7996 211.209 90.897 202.703 92.7059C198.434 93.6447 198.016 94.5715 200.152 98.522C202.235 102.423 203.868 104.604 206.874 107.43C210.073 110.472 211.761 111.481 215.353 112.612C218.653 113.632 221.505 113.696 226.064 112.835L226.892 112.695L227.621 115.375C228.368 118.071 229.788 122.565 231.069 126.3C231.453 127.393 231.645 128.27 231.542 128.239C231.406 128.208 230.701 127.836 229.926 127.397C227.929 126.26 224.288 125.181 221.824 125.022C217.966 124.763 212.903 125.841 208.492 127.903C204.467 129.769 203.688 130.484 203.965 132.072C204.163 133.187 207.374 136.737 210.44 139.222C216.502 144.125 222.174 146.341 228.261 146.205C231.364 146.11 233.54 145.597 236.863 144.156C238.206 143.579 238.981 143.356 239.104 143.54C239.21 143.707 240.201 145.311 241.315 147.098C243.489 150.555 249.264 158.894 249.942 159.538C250.62 160.183 249.973 160.097 247.882 159.268C243.734 157.608 238.432 157.3 234.083 158.427C231.774 159.011 228.973 160.32 226.654 161.889C224.702 163.211 219.89 168.201 218.04 170.844C215.927 173.866 216.152 174.743 219.309 176.122C225.468 178.801 234.273 180.123 239.951 179.2C242.502 178.78 246.991 177.123 249.129 175.813C251.117 174.559 254.581 171.299 255.776 169.555C256.234 168.899 256.662 168.345 256.729 168.343C256.797 168.341 258.106 169.785 259.661 171.561C266.683 179.562 270.878 183.783 271.828 183.76C272.693 183.755 273.445 183.312 273.7 182.66C274.005 181.957 273.794 181.657 270.467 178.229C266.461 174.122 260.293 167.032 260.281 166.557C260.279 166.455 261.033 166.08 261.957 165.7C268.691 162.935 273.403 157.353 275.73 149.371C276.917 145.303 277.35 141.61 277.226 136.659C277.13 132.165 276.862 130.95 275.898 130.397C275.054 129.927 274.108 130.086 270.646 131.395C264.981 133.489 261.791 135.52 258.421 139.134C254.421 143.375 252.622 148.052 252.54 154.23C252.537 155.486 252.495 156.505 252.427 156.507C252.258 156.511 248.17 150.505 245.644 146.548C241.845 140.518 241.596 140.083 242.031 139.835C242.232 139.728 243.285 139.108 244.339 138.487C248.186 136.287 251.238 132.833 253.133 128.578C255.397 123.482 256.081 116.949 255.018 110.444C254.293 105.915 253.633 104.625 252.041 104.733C250.245 104.846 244.391 108.217 241.304 110.941C237.486 114.295 234.934 118.72 234.216 123.234C234.099 123.984 233.927 124.582 233.842 124.567C233.266 124.582 229.302 111.345 229.731 110.893C229.797 110.824 230.707 110.563 231.752 110.299C237.066 109.063 241.74 105.331 244.409 100.157C246.448 96.2372 247.894 90.2963 247.965 85.6964C247.958 84.0677 247.9 83.7808 247.291 83.2022C246.718 82.6568 246.393 82.5801 245.191 82.6612C244.394 82.6982 242.403 83.1216 240.751 83.5704L237.735 84.4098L238.255 83.4805C240.009 80.3823 241.226 76.8056 241.715 73.332C242.277 69.3645 241.876 62.1975 240.82 57.9823C240.33 56.0604 239.525 55.0626 238.457 55.1065C236.745 55.1665 230.574 58.7322 227.369 61.5106C225.227 63.38 225.211 63.3973 223.848 65.2132ZM229.687 62.5891C231.566 61.0656 233.887 59.599 236.334 58.3836C238.596 57.2578 238.369 57.009 239.071 61.3179C240.455 69.7836 239.526 76.6787 236.24 82.2926C235.279 83.8947 232.207 87.2297 230.656 88.3037C228.956 89.5003 226.828 90.5888 226.686 90.3548C226.615 90.2209 226.633 89.5757 226.736 88.9453C226.876 87.7541 228.348 84.9175 230.506 81.6734C231.095 80.8102 231.566 79.967 231.564 79.8652C231.538 79.5096 228.857 82.8856 228.043 84.2634C227.637 84.9693 227.261 85.5387 227.193 85.5404C226.973 85.5629 227.486 83.0049 228.236 80.4749C229.424 76.4069 229.843 75.548 231.855 73.2238C233.735 71.0725 233.81 70.6804 232.045 72.0143L230.996 72.8382L232.339 70.2084C233.714 67.5439 233.863 66.7258 232.531 69.1007C231.428 71.0967 231.244 71.22 231.162 69.9835C231.083 68.8487 230.956 69.1913 230.777 70.8755C230.708 71.505 230.203 73.0108 229.624 74.247C229.061 75.4998 228.261 77.4202 227.865 78.5331C227.469 79.6459 227.102 80.5883 227.036 80.6578C226.97 80.7274 226.717 80.1229 226.476 79.2976C226.218 78.4897 225.947 77.8348 225.862 77.8199C225.778 77.839 225.906 78.8878 226.158 80.1539C226.569 82.2984 226.529 82.7575 225.869 86.2015C225.463 88.2647 225.115 89.9193 225.08 89.8863C224.836 89.6548 223.652 87.0717 223.177 85.7602C221.571 81.2535 221.388 76.677 222.623 72.4889C223.656 69.0356 226.36 65.2518 229.687 62.5891ZM203.268 94.9314C204.264 94.7197 206.226 94.4667 207.649 94.397C214.479 94.0724 219.783 96.501 222.995 101.442C224.231 103.346 225.567 106.536 225.865 108.276L226.025 109.256L225.005 108.484C222.601 106.661 221.328 105.319 220.509 103.779C219.547 101.97 219.203 101.775 219.839 103.439L220.293 104.632L217.744 103.135C216.349 102.305 214.784 101.479 214.287 101.271C213.636 101.05 213.1 100.639 212.54 99.9748C211.719 99.0284 211.719 99.0284 212.095 99.8164L212.471 100.604L211.1 100.062C209.182 99.3298 209.393 99.6298 211.418 100.563C212.345 100.981 213.153 101.385 213.205 101.434C213.257 101.484 212.749 101.531 212.072 101.582C210.818 101.647 210.956 101.745 212.899 102.07C215.539 102.495 217.981 103.791 220.98 106.312L222.644 107.729L220.797 107.131C218.847 106.501 217.193 106.186 217.182 106.441C217.202 106.526 218.024 106.844 219.016 107.159C222.349 108.144 225.653 109.961 225.14 110.5C224.843 110.813 222.646 111.173 220.966 111.165C217.794 111.194 214.563 110.24 211.598 108.38C209.34 106.961 205.875 103.434 204.214 100.829C202.837 98.692 201.216 95.6278 201.381 95.4539C201.447 95.3844 202.29 95.1596 203.268 94.9314ZM234.391 89.0751C236.475 87.5804 239.243 86.3401 242.058 85.6075C243.39 85.2855 244.74 84.9801 245.044 84.9385C245.57 84.9083 245.604 84.9414 245.67 85.5336C245.728 86.4823 245.263 90.2776 244.806 92.3252C243.467 98.467 240.251 103.485 236.007 106.069C234.235 107.132 232.101 107.949 230.545 108.158L229.614 108.266L229.98 107.29C230.299 106.468 230.727 105.948 232.896 103.84C234.287 102.482 235.361 101.318 235.274 101.235C235.135 101.103 232.637 102.964 231.628 103.991L231.016 104.634L231.417 103.691C232.923 100.192 235.769 96.6077 237.994 95.381C239.45 94.5808 239.598 94.3905 238.586 94.6196C238.13 94.7159 237.594 94.9669 237.428 95.1407C237.246 95.3319 237.113 95.4032 237.11 95.3014C237.107 95.1997 237.73 94.3357 238.503 93.3491L239.918 91.5829L238.561 92.9405C237.237 94.2633 237.22 94.2806 237.406 93.5634C237.716 92.4018 237.366 92.6651 236.939 93.9144C236.67 94.6847 236.179 95.4097 235.32 96.3136C234.66 97.0428 233.64 98.3241 233.101 99.169C232.545 99.9974 232.02 100.689 231.952 100.691C231.867 100.71 231.784 100.101 231.749 99.3727C231.686 97.5588 231.491 97.903 231.293 100.131C231.179 101.678 230.943 102.413 229.861 104.595C229.135 106.056 228.485 107.226 228.418 107.227C228.164 107.251 227.771 104.461 227.755 102.459C227.698 96.8447 229.992 92.2398 234.391 89.0751ZM208.758 130.373C214.391 127.652 219.322 126.748 223.994 127.648C228.427 128.521 232.569 131.301 235.524 135.435C237.018 137.484 238.09 139.629 237.578 139.506C237.356 139.461 235.931 138.801 234.351 138.06C231.655 136.754 231.43 136.607 229.949 135.032C228.345 133.342 228.093 133.433 229.377 135.25L230.027 136.133L227.566 135.414C226.216 135.024 224.355 134.579 223.418 134.416C222.48 134.253 221.077 133.779 220.286 133.358C218.979 132.678 218.928 132.662 219.622 133.256L220.385 133.915L219.246 133.825C215.914 133.57 216.003 133.754 219.513 134.31C221.915 134.708 221.915 134.708 219.637 135.19C218.253 135.496 219.036 135.612 221.799 135.491C224.427 135.408 225.124 135.476 227.212 136.17C229.795 137.038 232.985 138.383 233.162 138.684C233.199 138.785 232.487 138.803 231.568 138.724C229.613 138.553 227.003 138.686 226.993 138.941C226.995 139.043 228.17 139.2 229.614 139.282C233.846 139.566 236.509 140.178 237.499 141.086C237.69 141.268 235.78 142.232 233.947 142.906C227.49 145.206 220.189 143.659 213.239 138.506C210.403 136.406 206.017 132.003 206.38 131.621C206.463 131.534 207.534 130.964 208.758 130.373ZM245.517 110.479C247.403 109.227 250.852 107.376 251.527 107.257C252.051 107.159 252.069 107.209 252.262 108.121C253.501 114.231 253.389 120.546 251.962 125.214C250.424 130.173 247.067 134.296 242.315 136.96C241.562 137.37 240.857 137.659 240.77 137.576C240.439 137.262 240.999 135.246 241.925 133.577C242.427 132.631 243.453 130.925 244.205 129.787C245.463 127.872 245.495 127.803 244.635 128.673C243.741 129.578 242.478 131.289 241.663 132.633L241.272 133.254L241.333 132.319C241.401 130.96 242.529 127.233 243.477 125.156C244.058 123.954 244.809 122.781 245.847 121.55C246.704 120.545 247.276 119.699 247.157 119.685C247.021 119.654 246.67 119.884 246.356 120.214C245.331 121.292 245.317 120.715 246.322 118.857C246.873 117.826 247.292 116.967 247.24 116.917C247.136 116.818 245.791 118.65 245.584 119.181C245.439 119.507 245.387 119.458 245.217 118.767C245.025 117.889 244.944 118.044 244.749 119.712C244.677 120.239 244.297 121.301 243.908 122.057C243.504 122.831 242.75 124.563 242.24 125.9C241.749 127.253 241.271 128.486 241.207 128.657C241.143 128.829 240.892 128.258 240.666 127.382C239.995 124.989 239.83 125.197 240.305 127.866C240.699 130.028 240.677 130.503 240.069 133.335C239.687 135.024 239.351 136.492 239.32 136.595C239.225 136.868 237.871 134.324 237.378 132.928C236.483 130.388 236.12 126.766 236.47 123.822C236.723 121.746 237.804 118.834 239.045 116.903C240.204 115.092 243.547 111.75 245.517 110.479ZM228.225 163.648C234.58 159.297 241.83 158.809 249.163 162.307C251.172 163.257 253.898 165.055 253.924 165.411C253.927 165.546 252.218 165.708 250.115 165.761C246.486 165.852 246.214 165.825 243.987 164.965C241.537 164.026 241.115 164.121 243.127 165.173C244.726 165.998 244.726 165.998 243.509 166.199C241.397 166.54 238.056 167.303 236.728 167.761C235.987 168.017 234.77 168.183 234.022 168.134C232.645 168.016 231.837 168.274 232.995 168.448C234.102 168.607 233.97 168.746 232.037 169.49C230.139 170.234 229.406 170.795 231.139 170.192C232.669 169.661 235.633 168.772 235.703 168.838C235.72 168.855 235.224 169.376 234.578 169.986L233.384 171.102L235.206 170.021C237.865 168.445 239.495 167.844 242.115 167.421C244.7 167 249.086 166.669 249.312 166.884C249.382 166.95 248.578 167.377 247.52 167.828C245.439 168.729 242.661 170.258 243.019 170.334C243.139 170.382 243.862 170.109 244.583 169.769C247.669 168.334 251.844 167.041 253.202 167.074L254.543 167.092L254.038 167.936C253.778 168.383 252.507 169.79 251.232 171.027C249.327 172.89 248.596 173.485 247.039 174.322C240.713 177.807 233.273 178.146 224.194 175.372C221.031 174.416 219.111 173.65 219.172 173.377C219.233 173.104 221.415 170.148 222.503 168.865C224.019 167.096 226.425 164.915 228.225 163.648ZM263.173 137.827C264.055 137.177 265.71 136.168 266.865 135.545C269.209 134.299 274.1 132.462 274.53 132.672C274.924 132.848 275.027 140.294 274.705 143.034C273.634 151.68 269.964 158.254 264.185 161.895C261.897 163.327 258.439 164.805 258.326 164.367C258.195 163.878 258.798 162.234 259.532 161.045C260.185 160.01 263.16 156.219 264.365 154.883L264.844 154.345L264.239 154.597C263.887 154.759 262.778 155.856 261.49 157.28L259.346 159.709L260.086 157.434C260.495 156.168 261.309 154.128 261.905 152.875C262.89 150.865 263.217 150.381 264.886 148.592C265.927 147.497 267.087 146.382 267.454 146.135C267.821 145.888 268.035 145.628 267.948 145.545C267.861 145.463 267.224 145.784 266.541 146.26L265.256 147.123L266.84 144.657C267.705 143.295 268.422 142.123 268.42 142.055C268.417 141.954 267.807 142.631 267.05 143.566L265.683 145.212L265.727 144.261C265.814 142.986 265.533 143.316 265.201 144.953C265.035 145.755 264.569 146.801 264.062 147.544C263.226 148.735 261.668 151.523 260.555 153.808C260.247 154.409 259.987 154.857 259.935 154.808C259.9 154.774 259.744 153.964 259.618 153.017C259.476 152.087 259.27 151.295 259.168 151.298C259.066 151.3 259.063 152.522 259.151 153.996C259.301 156.588 259.238 156.793 258.099 160.046C257.45 161.911 256.861 163.47 256.779 163.557C256.613 163.731 255.633 160.515 255.279 158.59C254.259 153.118 255.22 147.478 257.914 143.253C258.827 141.805 261.457 139.109 263.173 137.827Z" fill="#DFA82D"/>
<path d="M143.572 459.284C144.679 466.546 148.658 471.946 155.759 475.811C157.613 476.835 160.719 477.965 162.045 478.141C162.887 478.235 163.426 478.579 165.573 480.554L168.115 482.853L166.576 482.779C159.439 482.467 152.933 486.336 148.234 493.653C145.898 497.347 146.263 498.296 150.573 499.558C154.81 500.822 157.51 501.196 161.633 501.048C166.045 500.914 167.95 500.425 171.28 498.668C174.327 497.04 176.379 495.058 178.975 491.212L179.458 490.526L181.875 491.893C184.316 493.259 188.509 495.412 192.064 497.128C193.111 497.625 193.87 498.106 193.775 498.157C193.658 498.232 192.897 498.471 192.04 498.713C189.827 499.332 186.499 501.16 184.652 502.8C181.754 505.359 178.958 509.716 177.32 514.301C175.815 518.474 175.774 519.531 177.098 520.451C178.03 521.095 182.812 521.31 186.735 520.88C194.484 520.022 200.049 517.55 204.235 513.127C206.35 510.856 207.517 508.949 208.831 505.573C209.365 504.213 209.752 503.505 209.969 503.547C210.162 503.589 211.999 504.013 214.053 504.479C218.04 505.367 228.028 507.129 228.963 507.101C229.898 507.072 229.383 507.472 227.322 508.374C223.224 510.154 219.276 513.705 217.017 517.589C215.807 519.641 214.767 522.553 214.25 525.304C213.816 527.621 213.978 534.552 214.554 537.726C215.215 541.354 215.997 541.81 219.198 540.537C225.435 538.045 232.569 532.718 235.908 528.033C237.404 525.924 239.384 521.569 239.958 519.127C240.465 516.832 240.585 512.077 240.186 510.001C240.043 509.214 239.95 508.52 239.996 508.471C240.043 508.422 241.989 508.507 244.345 508.652C254.972 509.29 260.923 509.279 261.574 508.587C262.179 507.969 262.394 507.122 262.111 506.483C261.825 505.772 261.463 505.71 256.686 505.663C250.949 505.62 241.572 505.016 241.226 504.69C241.152 504.62 241.415 503.82 241.796 502.897C244.568 496.166 243.916 488.89 239.881 481.62C237.825 477.915 235.505 475.009 231.899 471.614C228.638 468.521 227.586 467.857 226.515 468.153C225.587 468.421 225.034 469.206 223.529 472.587C221.031 478.086 220.231 481.782 220.428 486.72C220.628 492.545 222.686 497.115 227.019 501.52C227.91 502.405 228.604 503.152 228.558 503.201C228.441 503.325 221.298 502.005 216.708 501.015C209.75 499.474 209.266 499.344 209.396 498.86C209.461 498.642 209.761 497.457 210.061 496.272C211.204 491.99 210.897 487.392 209.206 483.051C207.177 477.857 203.016 472.775 197.645 468.953C193.916 466.282 192.535 465.844 191.492 467.052C190.309 468.407 188.586 474.939 188.35 479.05C188.048 484.123 189.396 489.049 192.1 492.735C192.55 493.346 192.854 493.889 192.784 493.939C192.389 494.359 180.193 487.864 180.174 487.24C180.171 487.144 180.626 486.315 181.174 485.386C184.034 480.74 184.67 474.793 182.871 469.256C181.52 465.049 178.315 459.842 175.095 456.556C173.933 455.415 173.688 455.254 172.849 455.28C172.058 455.304 171.775 455.48 170.987 456.392C170.453 456.984 169.353 458.697 168.51 460.187L166.984 462.92L166.689 461.897C165.722 458.471 164.036 455.09 161.912 452.298C159.487 449.108 154.112 444.351 150.373 442.136C148.663 441.132 147.387 441.002 146.667 441.792C145.505 443.051 143.698 449.945 143.418 454.177C143.239 457.014 143.24 457.038 143.572 459.284ZM145.815 453.289C146.054 450.882 146.645 448.2 147.502 445.606C148.294 443.207 147.957 443.193 151.514 445.725C158.503 450.698 162.75 456.209 164.428 462.494C164.89 464.304 165.099 468.833 164.771 470.691C164.425 472.741 163.702 475.019 163.436 474.955C163.291 474.911 162.845 474.445 162.469 473.928C161.721 472.991 160.741 469.949 159.954 466.133C159.755 465.107 159.487 464.179 159.413 464.109C159.142 463.877 159.655 468.158 160.062 469.705C160.278 470.491 160.418 471.158 160.371 471.208C160.232 471.38 158.775 469.216 157.505 466.903C155.449 463.197 155.134 462.295 154.898 459.23C154.691 456.38 154.466 456.051 154.172 458.244L154.02 459.568L153.095 456.765C152.169 453.913 151.693 453.231 152.444 455.848C153.086 458.037 153.044 458.254 152.108 457.442C151.245 456.7 151.399 457.032 152.471 458.343C152.87 458.835 153.585 460.254 154.055 461.535C154.55 462.816 155.352 464.736 155.864 465.8C156.376 466.865 156.788 467.788 156.791 467.884C156.794 467.98 156.186 467.734 155.43 467.325C154.675 466.94 154.019 466.672 153.948 466.722C153.902 466.796 154.738 467.442 155.815 468.154C157.628 469.371 157.926 469.722 159.91 472.614C161.09 474.354 162.021 475.766 161.973 475.767C161.637 475.777 158.968 474.802 157.702 474.216C153.369 472.187 149.988 469.098 147.881 465.274C146.153 462.11 145.367 457.526 145.815 453.289ZM150.213 494.817C150.763 493.961 151.964 492.388 152.916 491.328C157.49 486.246 162.947 484.185 168.719 485.379C170.941 485.839 174.148 487.134 175.594 488.147L176.403 488.722L175.137 488.904C172.15 489.331 170.301 489.29 168.63 488.789C166.668 488.2 166.288 488.308 167.917 489.027L169.085 489.543L166.228 490.301C164.656 490.709 162.968 491.24 162.471 491.447C161.856 491.754 161.187 491.846 160.321 491.776C159.07 491.694 159.07 491.694 159.895 491.981L160.72 492.268L159.37 492.861C157.499 493.709 157.861 493.77 159.949 492.987C160.898 492.622 161.753 492.333 161.825 492.33C161.897 492.328 161.573 492.722 161.133 493.239C160.297 494.176 160.464 494.147 162.061 492.995C164.222 491.418 166.861 490.594 170.762 490.236L172.94 490.051L171.215 490.943C169.395 491.886 168.008 492.84 168.182 493.026C168.255 493.072 169.06 492.712 169.982 492.228C173.027 490.552 176.642 489.483 176.665 490.226C176.678 490.658 175.389 492.473 174.201 493.66C171.99 495.935 169.039 497.56 165.631 498.359C163.034 498.965 158.09 498.947 155.07 498.294C152.582 497.769 149.264 496.766 149.257 496.526C149.254 496.43 149.687 495.673 150.213 494.817ZM167.947 468.579C168.351 466.047 169.417 463.207 170.877 460.691C171.585 459.518 172.318 458.344 172.502 458.098C172.85 457.703 172.898 457.702 173.365 458.072C174.08 458.698 176.451 461.698 177.584 463.464C181.007 468.736 182.311 474.552 181.161 479.387C180.67 481.394 179.749 483.485 178.803 484.738L178.225 485.475L177.789 484.529C177.428 483.723 177.36 483.054 177.389 480.029C177.402 478.085 177.33 476.503 177.21 476.507C177.018 476.512 176.584 479.597 176.603 481.037L176.63 481.924L176.241 480.975C174.815 477.443 174.269 472.9 174.963 470.455C175.419 468.857 175.388 468.618 174.839 469.499C174.586 469.89 174.387 470.448 174.395 470.688C174.403 470.952 174.359 471.097 174.285 471.027C174.211 470.958 174.035 469.907 173.877 468.664L173.618 466.416L173.628 468.335C173.636 470.207 173.637 470.231 173.258 469.594C172.65 468.557 172.591 468.991 173.179 470.173C173.537 470.906 173.707 471.765 173.745 473.011C173.798 473.994 173.992 475.62 174.213 476.597C174.411 477.575 174.533 478.435 174.486 478.485C174.44 478.558 173.949 478.189 173.407 477.701C172.073 476.47 172.181 476.85 173.624 478.559C174.644 479.728 175 480.413 175.79 482.717C176.317 484.261 176.691 485.546 176.645 485.595C176.483 485.792 174.224 484.108 172.79 482.712C168.76 478.802 167.101 473.932 167.947 468.579ZM179.263 515.85C181.292 509.933 184.119 505.792 188.045 503.105C191.784 500.569 196.674 499.581 201.69 500.389C204.198 500.769 206.476 501.516 206.029 501.794C205.84 501.92 204.369 502.468 202.731 503.07C199.906 504.067 199.643 504.123 197.482 504.068C195.152 504.019 195.04 504.262 197.235 504.628L198.319 504.787L196.077 506.03C194.85 506.715 193.225 507.725 192.449 508.276C191.674 508.827 190.35 509.491 189.494 509.757C188.092 510.207 188.045 510.233 188.954 510.157L189.96 510.079L189.095 510.825C186.569 513.013 186.763 513.079 189.627 510.977C191.6 509.55 191.6 509.55 190.339 511.507C189.583 512.706 190.217 512.231 192.075 510.183C193.865 508.257 194.403 507.809 196.365 506.814C198.8 505.588 202 504.268 202.338 504.353C202.435 504.398 201.947 504.917 201.245 505.514C199.748 506.783 198.007 508.732 198.18 508.919C198.254 508.988 199.192 508.264 200.267 507.296C203.446 504.488 205.754 503.026 207.096 502.962C207.359 502.954 206.701 504.989 205.891 506.766C202.983 512.973 196.747 517.073 188.195 518.388C184.708 518.925 178.493 518.945 178.477 518.418C178.473 518.298 178.822 517.135 179.263 515.85ZM190.986 475.73C191.423 473.509 192.533 469.756 192.924 469.192C193.223 468.751 193.271 468.774 194.055 469.278C199.27 472.696 203.678 477.219 205.992 481.516C208.434 486.098 209.002 491.385 207.553 496.636C207.313 497.459 207.023 498.164 206.903 498.168C206.447 498.182 205.408 496.365 204.873 494.533C204.554 493.511 204.064 491.582 203.784 490.247C203.308 488.005 203.282 487.934 203.295 489.157C203.309 490.429 203.637 492.531 204.019 494.055L204.184 494.77L203.563 494.069C202.645 493.065 200.79 489.641 199.981 487.506C199.535 486.247 199.23 484.889 199.086 483.285C198.974 481.968 198.776 480.967 198.682 481.041C198.564 481.117 198.481 481.527 198.494 481.983C198.539 483.469 198.119 483.074 197.506 481.053C197.161 479.935 196.845 479.033 196.773 479.035C196.629 479.039 196.985 481.285 197.217 481.806C197.347 482.138 197.275 482.14 196.664 481.774C195.906 481.293 195.959 481.46 197.006 482.772C197.331 483.194 197.818 484.211 198.082 485.019C198.347 485.851 199.048 487.606 199.64 488.908C200.255 490.209 200.795 491.417 200.872 491.582C200.949 491.748 200.367 491.526 199.585 491.069C197.413 489.863 197.444 490.126 199.675 491.667C201.488 492.908 201.811 493.258 203.396 495.682C204.328 497.142 205.134 498.413 205.185 498.508C205.313 498.768 202.552 497.939 201.213 497.308C198.779 496.157 195.95 493.867 194.104 491.547C192.806 489.906 191.497 487.09 190.997 484.849C190.526 482.752 190.503 478.025 190.986 475.73ZM216.606 525.425C217.985 517.848 222.739 512.352 230.383 509.601C232.472 508.842 235.667 508.17 235.938 508.402C236.037 508.495 234.949 509.823 233.508 511.355C231.02 513.998 230.809 514.172 228.631 515.15C226.239 516.23 226.011 516.597 228.174 515.908C229.885 515.352 229.885 515.352 229.171 516.358C227.928 518.099 226.12 521.01 225.51 522.276C225.172 522.982 224.433 523.964 223.872 524.461C222.819 525.357 222.434 526.113 223.373 525.412C224.265 524.737 224.27 524.929 223.44 526.826C222.632 528.698 222.516 529.614 223.306 527.958C224.006 526.497 225.459 523.765 225.555 523.762C225.579 523.762 225.601 524.481 225.58 525.37L225.533 527.003L226.047 524.948C226.796 521.949 227.516 520.367 229.059 518.209C230.578 516.075 233.429 512.725 233.741 512.716C233.837 512.713 233.575 513.585 233.151 514.653C232.327 516.766 231.459 519.816 231.765 519.615C231.884 519.563 232.198 518.858 232.464 518.106C233.615 514.903 235.634 511.027 236.613 510.085L237.569 509.144L237.813 510.097C237.948 510.597 238.054 512.489 238.035 514.266C238.02 516.93 237.928 517.869 237.427 519.564C235.454 526.511 230.461 532.038 222.101 536.538C219.197 538.114 217.302 538.939 217.151 538.703C217 538.468 216.434 534.837 216.288 533.162C216.098 530.84 216.24 527.596 216.606 525.425ZM222.842 482.423C223.001 481.338 223.448 479.453 223.818 478.194C224.581 475.651 226.717 470.883 227.168 470.725C227.572 470.569 232.935 475.735 234.656 477.89C240.047 484.735 242.137 491.967 240.659 498.636C240.066 501.269 238.684 504.767 238.293 504.539C237.854 504.288 237.11 502.703 236.781 501.345C236.505 500.153 235.904 495.372 235.802 493.575L235.756 492.856L235.511 493.464C235.378 493.828 235.377 495.387 235.483 497.304L235.701 500.537L234.604 498.411C233.993 497.229 233.116 495.216 232.645 493.91C231.909 491.797 231.795 491.224 231.698 488.779C231.652 487.269 231.675 485.66 231.758 485.226C231.841 484.791 231.807 484.456 231.687 484.46C231.567 484.463 231.348 485.142 231.204 485.962L230.914 487.483L230.276 484.622C229.917 483.049 229.588 481.715 229.539 481.669C229.465 481.599 229.516 482.509 229.648 483.705L229.857 485.835L229.212 485.134C228.367 484.176 228.404 484.607 229.334 485.995C229.786 486.677 230.202 487.744 230.373 488.627C230.632 490.059 231.517 493.128 232.357 495.527C232.569 496.168 232.704 496.668 232.632 496.67C232.584 496.672 231.898 496.213 231.137 495.636C230.376 495.083 229.668 494.672 229.598 494.746C229.528 494.82 230.394 495.682 231.504 496.656C233.451 498.373 233.553 498.562 235.063 501.661C235.932 503.434 236.626 504.949 236.629 505.069C236.637 505.309 233.662 503.743 232.044 502.64C227.438 499.515 224.106 494.864 222.998 489.978C222.612 488.31 222.546 484.544 222.842 482.423Z" fill="#DFA82D"/>
<path d="M527.303 217.404C526.195 224.666 522.216 230.065 515.116 233.93C513.261 234.954 510.155 236.084 508.83 236.26C507.987 236.355 507.449 236.699 505.301 238.674L502.76 240.973L504.298 240.899C511.435 240.587 517.942 244.455 522.64 251.773C524.976 255.467 524.612 256.416 520.302 257.678C516.064 258.941 513.365 259.316 509.242 259.167C504.83 259.034 502.925 258.544 499.594 256.788C496.548 255.16 494.496 253.178 491.9 249.332L491.417 248.645L489 250.012C486.559 251.378 482.366 253.531 478.81 255.248C477.763 255.744 477.005 256.225 477.099 256.276C477.217 256.352 477.978 256.591 478.834 256.833C481.047 257.451 484.376 259.28 486.222 260.92C489.121 263.479 491.917 267.835 493.554 272.42C495.06 276.594 495.1 277.651 493.776 278.571C492.845 279.214 488.063 279.43 484.14 278.999C476.39 278.141 470.825 275.669 466.639 271.247C464.524 268.975 463.358 267.068 462.044 263.693C461.509 262.333 461.123 261.625 460.905 261.666C460.712 261.709 458.875 262.133 456.821 262.599C452.835 263.486 442.846 265.248 441.911 265.22C440.976 265.192 441.492 265.591 443.553 266.494C447.65 268.273 451.599 271.825 453.857 275.709C455.067 277.761 456.107 280.672 456.624 283.424C457.058 285.741 456.897 292.671 456.321 295.846C455.659 299.473 454.877 299.93 451.676 298.657C445.44 296.165 438.305 290.838 434.967 286.153C433.471 284.044 431.491 279.688 430.916 277.247C430.41 274.952 430.289 270.197 430.688 268.121C430.832 267.333 430.925 266.64 430.878 266.591C430.832 266.541 428.885 266.626 426.529 266.771C415.903 267.41 409.951 267.398 409.3 266.707C408.695 266.088 408.481 265.242 408.764 264.603C409.049 263.891 409.411 263.83 414.188 263.782C419.925 263.74 429.303 263.135 429.649 262.81C429.723 262.74 429.459 261.94 429.079 261.017C426.307 254.285 426.958 247.009 430.994 239.74C433.05 236.034 435.369 233.129 438.976 229.734C442.237 226.641 443.289 225.976 444.36 226.273C445.288 226.541 445.84 227.325 447.346 230.707C449.843 236.206 450.644 239.902 450.446 244.839C450.246 250.665 448.188 255.235 443.856 259.639C442.965 260.524 442.27 261.271 442.317 261.321C442.433 261.444 449.577 260.124 454.166 259.135C461.124 257.593 461.608 257.464 461.479 256.98C461.413 256.762 461.113 255.577 460.813 254.392C459.671 250.11 459.978 245.511 461.669 241.171C463.697 235.976 467.859 230.895 473.23 227.073C476.958 224.402 478.34 223.964 479.383 225.171C480.566 226.527 482.288 233.058 482.524 237.169C482.827 242.242 481.478 247.169 478.775 250.855C478.324 251.465 478.02 252.008 478.091 252.058C478.486 252.478 490.681 245.983 490.7 245.36C490.703 245.264 490.248 244.434 489.7 243.506C486.841 238.86 486.205 232.913 488.004 227.376C489.355 223.169 492.56 217.962 495.779 214.675C496.941 213.535 497.186 213.374 498.025 213.399C498.817 213.423 499.099 213.6 499.888 214.512C500.422 215.104 501.522 216.817 502.365 218.306L503.89 221.04L504.185 220.017C505.153 216.59 506.839 213.21 508.963 210.418C511.387 207.228 516.763 202.47 520.501 200.255C522.211 199.251 523.487 199.122 524.207 199.911C525.369 201.17 527.177 208.065 527.457 212.297C527.635 215.134 527.634 215.158 527.303 217.404ZM525.06 211.408C524.821 209.001 524.23 206.32 523.372 203.726C522.581 201.326 522.917 201.312 519.361 203.845C512.371 208.817 508.125 214.328 506.447 220.613C505.984 222.423 505.775 226.953 506.103 228.81C506.449 230.861 507.172 233.138 507.438 233.074C507.584 233.031 508.03 232.564 508.405 232.048C509.154 231.11 510.133 228.068 510.921 224.252C511.12 223.226 511.388 222.299 511.462 222.229C511.733 221.997 511.219 226.277 510.813 227.825C510.597 228.61 510.457 229.278 510.503 229.327C510.642 229.5 512.099 227.336 513.369 225.022C515.425 221.317 515.74 220.414 515.977 217.35C516.183 214.5 516.409 214.171 516.703 216.364L516.855 217.688L517.779 214.884C518.705 212.032 519.182 211.351 518.431 213.968C517.789 216.156 517.83 216.374 518.767 215.562C519.629 214.82 519.475 215.151 518.404 216.463C518.005 216.955 517.29 218.373 516.819 219.655C516.325 220.936 515.523 222.855 515.01 223.92C514.498 224.984 514.086 225.908 514.084 226.004C514.081 226.1 514.688 225.854 515.444 225.445C516.2 225.06 516.856 224.792 516.926 224.842C516.972 224.915 516.137 225.562 515.059 226.273C513.247 227.49 512.948 227.841 510.965 230.733C509.784 232.473 508.854 233.885 508.902 233.887C509.237 233.897 511.907 232.922 513.172 232.336C517.505 230.307 520.886 227.217 522.994 223.393C524.721 220.23 525.508 215.646 525.06 211.408ZM520.661 252.937C520.111 252.08 518.911 250.508 517.959 249.447C513.385 244.365 507.927 242.305 502.156 243.498C499.934 243.959 496.727 245.254 495.28 246.266L494.471 246.842L495.738 247.024C498.724 247.45 500.574 247.41 502.245 246.909C504.206 246.32 504.587 246.427 502.957 247.146L501.79 247.663L504.647 248.421C506.218 248.829 507.906 249.36 508.404 249.567C509.019 249.873 509.688 249.965 510.554 249.896C511.804 249.813 511.804 249.813 510.98 250.1L510.155 250.387L511.505 250.98C513.375 251.829 513.013 251.89 510.925 251.107C509.976 250.742 509.121 250.452 509.049 250.45C508.977 250.448 509.301 250.842 509.742 251.359C510.577 252.296 510.41 252.267 508.813 251.115C506.653 249.538 504.014 248.714 500.113 248.356L497.935 248.17L499.66 249.062C501.479 250.005 502.866 250.959 502.692 251.146C502.619 251.192 501.814 250.831 500.893 250.348C497.848 248.672 494.232 247.602 494.21 248.346C494.197 248.777 495.486 250.592 496.674 251.78C498.885 254.055 501.836 255.68 505.243 256.479C507.841 257.085 512.785 257.066 515.804 256.414C518.292 255.889 521.61 254.885 521.617 254.646C521.62 254.55 521.187 253.793 520.661 252.937ZM502.927 226.699C502.524 224.167 501.458 221.327 499.998 218.811C499.289 217.637 498.557 216.463 498.372 216.218C498.024 215.823 497.976 215.822 497.509 216.192C496.794 216.818 494.424 219.818 493.29 221.584C489.867 226.856 488.564 232.672 489.714 237.507C490.205 239.513 491.126 241.605 492.072 242.857L492.649 243.595L493.086 242.648C493.446 241.843 493.514 241.173 493.486 238.149C493.473 236.204 493.544 234.623 493.664 234.626C493.856 234.632 494.291 237.717 494.271 239.156L494.245 240.043L494.633 239.095C496.06 235.562 496.605 231.019 495.911 228.574C495.455 226.977 495.487 226.738 496.036 227.618C496.288 228.01 496.487 228.568 496.48 228.808C496.472 229.071 496.516 229.217 496.59 229.147C496.664 229.077 496.84 228.027 496.997 226.783L497.257 224.535L497.247 226.455C497.238 228.327 497.238 228.351 497.617 227.714C498.224 226.676 498.283 227.11 497.695 228.292C497.337 229.026 497.167 229.884 497.13 231.131C497.076 232.113 496.883 233.739 496.661 234.717C496.464 235.695 496.342 236.555 496.388 236.604C496.434 236.678 496.925 236.309 497.468 235.821C498.801 234.589 498.694 234.97 497.25 236.678C496.231 237.847 495.874 238.533 495.085 240.837C494.558 242.381 494.183 243.665 494.23 243.715C494.392 243.912 496.65 242.228 498.084 240.831C502.114 236.921 503.773 232.052 502.927 226.699ZM491.611 273.97C489.582 268.053 486.756 263.911 482.829 261.225C479.09 258.688 474.2 257.7 469.184 258.509C466.677 258.889 464.398 259.636 464.846 259.914C465.034 260.039 466.506 260.588 468.143 261.189C470.969 262.186 471.231 262.242 473.393 262.188C475.722 262.138 475.835 262.382 473.64 262.747L472.555 262.906L474.797 264.15C476.025 264.835 477.65 265.844 478.425 266.396C479.201 266.947 480.524 267.611 481.38 267.877C482.783 268.327 482.83 268.353 481.92 268.277L480.915 268.199L481.78 268.945C484.306 271.133 484.112 271.199 481.247 269.097C479.275 267.669 479.275 267.669 480.535 269.627C481.291 270.826 480.658 270.351 478.8 268.303C477.01 266.377 476.471 265.929 474.51 264.933C472.075 263.708 468.875 262.387 468.536 262.473C468.439 262.518 468.927 263.037 469.629 263.634C471.127 264.903 472.868 266.852 472.694 267.038C472.62 267.108 471.682 266.384 470.607 265.415C467.428 262.607 465.121 261.146 463.779 261.081C463.515 261.073 464.173 263.109 464.984 264.885C467.892 271.093 474.128 275.193 482.679 276.507C486.167 277.045 492.382 277.065 492.398 276.537C492.401 276.417 492.053 275.255 491.611 273.97ZM479.889 233.85C479.452 231.629 478.341 227.876 477.95 227.312C477.652 226.871 477.603 226.893 476.82 227.398C471.605 230.816 467.197 235.338 464.883 239.636C462.44 244.218 461.873 249.504 463.322 254.756C463.561 255.579 463.852 256.284 463.972 256.287C464.427 256.301 465.466 254.485 466.001 252.653C466.32 251.631 466.81 249.702 467.091 248.366C467.567 246.125 467.593 246.054 467.58 247.277C467.565 248.549 467.238 250.65 466.856 252.175L466.69 252.89L467.311 252.189C468.23 251.184 470.085 247.761 470.893 245.625C471.339 244.367 471.644 243.008 471.789 241.405C471.901 240.088 472.099 239.086 472.193 239.161C472.31 239.237 472.394 239.647 472.38 240.103C472.335 241.589 472.755 241.194 473.368 239.172C473.714 238.055 474.029 237.153 474.101 237.155C474.245 237.159 473.889 239.404 473.657 239.925C473.527 240.257 473.599 240.259 474.21 239.894C474.969 239.413 474.916 239.579 473.868 240.891C473.544 241.314 473.057 242.331 472.792 243.139C472.527 243.971 471.826 245.725 471.235 247.028C470.62 248.329 470.079 249.536 470.002 249.702C469.925 249.868 470.508 249.645 471.29 249.189C473.462 247.983 473.43 248.246 471.2 249.786C469.386 251.027 469.064 251.378 467.479 253.802C466.546 255.261 465.74 256.533 465.689 256.627C465.561 256.887 468.322 256.059 469.661 255.427C472.096 254.277 474.925 251.987 476.771 249.667C478.068 248.026 479.377 245.21 479.877 242.969C480.348 240.871 480.371 236.144 479.889 233.85ZM454.269 283.544C452.89 275.967 448.136 270.472 440.492 267.721C438.403 266.962 435.207 266.29 434.936 266.521C434.837 266.614 435.925 267.943 437.367 269.475C439.855 272.118 440.066 272.292 442.244 273.27C444.635 274.35 444.864 274.717 442.701 274.027C440.99 273.472 440.99 273.472 441.703 274.477C442.947 276.219 444.755 279.129 445.364 280.396C445.703 281.102 446.441 282.084 447.002 282.581C448.055 283.477 448.44 284.232 447.501 283.532C446.61 282.857 446.604 283.049 447.435 284.946C448.242 286.818 448.358 287.734 447.568 286.078C446.869 284.617 445.415 281.885 445.319 281.882C445.295 281.881 445.274 282.601 445.295 283.489L445.341 285.123L444.828 283.067C444.078 280.069 443.358 278.487 441.815 276.329C440.296 274.195 437.445 270.845 437.134 270.835C437.038 270.833 437.299 271.704 437.723 272.773C438.547 274.886 439.415 277.936 439.109 277.735C438.991 277.683 438.676 276.978 438.411 276.226C437.26 273.023 435.241 269.146 434.261 268.205L433.306 267.264L433.061 268.217C432.926 268.716 432.821 270.609 432.839 272.386C432.855 275.05 432.946 275.989 433.447 277.684C435.421 284.631 440.414 290.157 448.773 294.658C451.677 296.233 453.572 297.058 453.723 296.823C453.874 296.588 454.44 292.957 454.587 291.282C454.777 288.959 454.635 285.715 454.269 283.544ZM448.032 240.543C447.873 239.458 447.426 237.573 447.056 236.314C446.293 233.771 444.157 229.002 443.706 228.845C443.303 228.689 437.939 233.854 436.218 236.01C430.828 242.855 428.737 250.087 430.216 256.755C430.808 259.389 432.19 262.887 432.581 262.658C433.021 262.408 433.765 260.822 434.094 259.464C434.37 258.273 434.97 253.491 435.072 251.694L435.118 250.976L435.364 251.583C435.497 251.947 435.498 253.507 435.392 255.424L435.174 258.657L436.27 256.53C436.882 255.349 437.759 253.335 438.23 252.03C438.966 249.916 439.079 249.344 439.177 246.899C439.223 245.388 439.199 243.78 439.116 243.345C439.033 242.911 439.068 242.576 439.188 242.579C439.307 242.583 439.527 243.262 439.67 244.082L439.96 245.602L440.598 242.742C440.958 241.169 441.286 239.835 441.336 239.788C441.41 239.719 441.358 240.629 441.226 241.825L441.018 243.955L441.663 243.254C442.508 242.296 442.471 242.727 441.541 244.114C441.088 244.797 440.672 245.864 440.501 246.747C440.242 248.179 439.358 251.248 438.517 253.646C438.306 254.288 438.171 254.788 438.243 254.79C438.291 254.791 438.976 254.332 439.738 253.755C440.498 253.202 441.207 252.792 441.277 252.866C441.346 252.94 440.48 253.802 439.371 254.776C437.423 256.493 437.321 256.682 435.812 259.78C434.942 261.554 434.249 263.069 434.245 263.189C434.238 263.428 437.213 261.862 438.83 260.759C443.436 257.635 446.769 252.984 447.876 248.098C448.263 246.429 448.328 242.664 448.032 240.543Z" fill="#DFA82D"/>
<path d="M176.197 110.514H493.216V522.12C493.216 538.688 479.784 552.12 463.216 552.12H206.197C189.629 552.12 176.197 538.688 176.197 522.12V110.514Z" fill="#3A2C1F"/>
<rect x="160.976" y="107.318" width="346.623" height="38.2396" rx="19.1198" fill="#376631"/>
<rect x="160.976" y="257.192" width="346.623" height="38.2396" rx="19.1198" fill="#376631"/>
<rect x="160.976" y="407.066" width="346.623" height="38.2396" rx="19.1198" fill="#376631"/>
<path d="M347.24 530.112C347.24 537.094 341.441 542.755 334.288 542.755C327.135 542.755 321.336 537.094 321.336 530.112C321.336 523.129 327.135 517.468 334.288 517.468C341.441 517.468 347.24 523.129 347.24 530.112Z" fill="#2E251D"/>
<path d="M176.197 147.526H493.216" stroke="#2E251D" stroke-width="5"/>
<path d="M176.197 297.364H493.216" stroke="#2E251D" stroke-width="5"/>
<line x1="176.197" y1="446.855" x2="493.216" y2="446.855" stroke="#2E251D" stroke-width="5"/>
</svg>
