<svg width="48" height="50" viewBox="0 0 48 50" fill="none" xmlns="http://www.w3.org/2000/svg">
<path d="M14.9389 39.3749L15.5511 39.7444C18.1227 41.2994 21.0712 42.122 24.078 42.1234H24.0843C33.3183 42.1234 40.8332 34.4682 40.8371 25.0594C40.8387 20.5 39.0978 16.2124 35.9348 12.9872C34.3834 11.3966 32.5378 10.1353 30.5048 9.27638C28.4718 8.41743 26.2918 7.97787 24.0909 7.98314C14.8498 7.98314 7.33463 15.6374 7.33134 25.0457C7.32679 28.2584 8.21472 31.4068 9.89248 34.1269L10.2911 34.7722L8.59835 41.0686L14.9389 39.3749ZM3.75879 45.9465L6.61853 35.3081C4.85485 32.1948 3.92699 28.6628 3.92809 25.0443C3.93275 13.7243 12.9741 4.51508 24.0846 4.51508C29.4762 4.51787 34.5368 6.65564 38.3428 10.5362C42.1487 14.4168 44.2428 19.575 44.2409 25.0608C44.2359 36.3799 35.1932 45.5909 24.0843 45.5909H24.0756C20.7024 45.5895 17.388 44.7273 14.4438 43.0916L3.75879 45.9465Z" fill="#B3B3B3"/>
<path d="M3.55225 45.7355L6.41199 35.0971C4.64527 31.9763 3.71728 28.4361 3.72155 24.8333C3.7262 13.5133 12.7676 4.30408 23.8781 4.30408C29.2696 4.30687 34.3303 6.44465 38.1362 10.3252C41.9422 14.2058 44.0362 19.364 44.0343 24.8498C44.0294 36.1689 34.9866 45.3799 23.8778 45.3799H23.869C20.4959 45.3785 17.1814 44.5163 14.2373 42.8806L3.55225 45.7355Z" fill="white"/>
<path d="M23.8836 7.77214C14.6425 7.77214 7.12733 15.4264 7.12404 24.8347C7.11949 28.0474 8.00742 31.1958 9.68518 33.9159L10.0838 34.5615L8.39105 40.8579L14.7318 39.1639L15.3441 39.5334C17.9157 41.0884 20.8642 41.9107 23.871 41.9124H23.8773C33.1113 41.9124 40.6265 34.2572 40.63 24.8484C40.637 22.6058 40.2073 20.3841 39.3658 18.3119C38.5243 16.2397 37.2878 14.3582 35.7277 12.7762C34.1763 11.1856 32.3307 9.92428 30.2976 9.06533C28.2646 8.20638 26.0845 7.76683 23.8836 7.77214Z" fill="#3A2C1F"/>
<path fill-rule="evenodd" clip-rule="evenodd" d="M18.8397 16.2507C18.4622 15.3963 18.065 15.379 17.7064 15.3642L16.741 15.3522C16.4051 15.3522 15.8594 15.4806 15.3981 15.9941C14.9368 16.5077 13.6353 17.749 13.6353 20.2736C13.6353 22.7982 15.44 25.2378 15.6915 25.5805C15.943 25.9233 19.1756 31.2692 24.2948 33.3261C28.549 35.0354 29.4146 34.6954 30.3384 34.61C31.2621 34.5246 33.3181 33.3688 33.7375 32.1705C34.1569 30.9723 34.1572 29.9457 34.0315 29.731C33.9057 29.5164 33.5699 29.3888 33.0658 29.132C32.5617 28.8752 30.0861 27.634 29.6245 27.4626C29.1629 27.2912 28.8273 27.2061 28.4912 27.7197C28.155 28.2333 27.191 29.3885 26.8971 29.731C26.6031 30.0735 26.3097 30.1165 25.8056 29.86C25.3016 29.6035 23.6798 29.0614 21.7556 27.3133C20.2585 25.9531 19.2479 24.2734 18.9537 23.7601C18.6595 23.2468 18.9224 22.9688 19.175 22.7131C19.401 22.4831 19.6785 22.1138 19.9308 21.8144C20.1831 21.5149 20.2662 21.3008 20.4338 20.9588C20.6015 20.6169 20.5179 20.3166 20.3919 20.0601C20.2659 19.8036 19.2873 17.2655 18.8397 16.2507Z" fill="white"/>
</svg>
