<svg width="72" height="48" viewBox="0 0 72 48" fill="none" xmlns="http://www.w3.org/2000/svg">
<g clip-path="url(#clip0_21_981)">
<path d="M69.9417 8.103C69.1182 5.22063 66.7064 2.94799 63.6476 2.17196C58.0593 0.730774 35.7062 0.730774 35.7062 0.730774C35.7062 0.730774 13.353 0.730774 7.76477 2.11653C4.76474 2.89256 2.29414 5.22063 1.4706 8.103C0 13.3689 0 24.2887 0 24.2887C0 24.2887 0 35.2639 1.4706 40.4743C2.29414 43.3567 4.70592 45.6293 7.76477 46.4053C13.4119 47.8465 35.7062 47.8465 35.7062 47.8465C35.7062 47.8465 58.0593 47.8465 63.6476 46.4608C66.7064 45.6847 69.1182 43.4121 69.9417 40.5297C71.4123 35.2639 71.4123 24.3441 71.4123 24.3441C71.4123 24.3441 71.4712 13.3689 69.9417 8.103Z" fill="white"/>
<path d="M47.1768 24.2886L28.5884 14.2003V34.3769L47.1768 24.2886Z" fill="#3A2C1F"/>
</g>
<defs>
<clipPath id="clip0_21_981">
<rect width="71.4121" height="47.1154" fill="white" transform="translate(0 0.730774)"/>
</clipPath>
</defs>
</svg>
